<?xml version="1.0" encoding="UTF-8"?>
<svg width="1440px" height="1024px" viewBox="0 0 1440 1024" version="1.1" xmlns="http://www.w3.org/2000/svg" xmlns:xlink="http://www.w3.org/1999/xlink">
    <!-- Generator: Sketch 52.4 (67378) - http://www.bohemiancoding.com/sketch -->
    <title>Group</title>
    <desc>Created with Sketch.</desc>
    <g id="Home" stroke="none" stroke-width="1" fill="none" fill-rule="evenodd">
        <g id="Homepage---Step6">
            <g id="Group" transform="translate(-113.000000, -421.000000)">
                <rect id="Rectangle" fill="#EFECE9" x="113" y="421" width="1440" height="1024"></rect>
                <path d="M1319.66526,155.769984 C1216.58842,169.769984 1150.8742,210.769984 1122.52259,278.769984 C1079.99517,380.769984 1075.17841,476.820957 1179.63063,595.019984 C1284.08286,713.219011 1355.17662,643.609984 1462.49857,670.96744 C1569.82052,698.324897 1528.41898,821.209075 1635.64582,904.983871 C1705.06564,959.220573 1790.78,969.24285 1892.78892,935.050701 L1699.82504,155.769984 L1319.66526,155.769984 Z" id="Path-4" fill="#8C2632" transform="translate(1493.475060, 555.325967) rotate(34.000000) translate(-1493.475060, -555.325967) "></path>
                <path d="M65.3129149,1103.85748 C151.823721,1096.52434 226.221436,1109.66723 288.506057,1143.28613 C381.93299,1193.71449 354.11022,1357.70815 480.179752,1357.70815 C564.226107,1357.70815 613.594009,1411.54358 628.283457,1519.21443 L39.3924127,1490.74002 L66.1539149,1325.5895 L65.3129149,1103.85748 Z" id="Path-2" fill="#8C2632" transform="translate(333.837935, 1310.551117) rotate(-13.000000) translate(-333.837935, -1310.551117) "></path>
            </g>
        </g>
        <g id="Page"></g>
        <g id="Page"></g>
    </g>
</svg>