<?xml version="1.0" encoding="UTF-8"?>
<svg width="22px" height="22px" viewBox="0 0 22 22" version="1.1" xmlns="http://www.w3.org/2000/svg" xmlns:xlink="http://www.w3.org/1999/xlink">
    <!-- Generator: Sketch 52.4 (67378) - http://www.bohemiancoding.com/sketch -->
    <title>Group</title>
    <desc>Created with Sketch.</desc>
    <g id="Home" stroke="none" stroke-width="1" fill="none" fill-rule="evenodd">
        <g id="Homepage---Step5-Sign-Up" transform="translate(-806.000000, -697.000000)">
            <g id="User" transform="translate(362.000000, 292.000000)">
                <g id="GOOGLE" transform="translate(377.000000, 393.000000)">
                    <g id="Group" transform="translate(67.000000, 12.000000)">
                        <path d="M7.76875,1.03125 C5.225,1.925 3.025,3.85 1.7875,6.25625 C1.375,7.08125 1.03125,7.975 0.89375,8.9375 C0.4125,11.20625 0.75625,13.68125 1.7875,15.74375 C2.475,17.11875 3.4375,18.2875 4.675,19.25 C5.775,20.14375 7.08125,20.83125 8.525,21.175 C10.3125,21.65625 12.16875,21.65625 13.8875,21.24375 C15.46875,20.9 16.98125,20.14375 18.21875,18.975 C19.525,17.80625 20.41875,16.29375 20.9,14.575 C21.45,12.7875 21.51875,10.8625 21.175,9.00625 C17.875,9.00625 14.575,9.00625 11.275,9.00625 C11.275,10.38125 11.275,11.75625 11.275,13.13125 C13.2,13.13125 15.125,13.13125 16.98125,13.13125 C16.775,14.4375 15.95,15.675 14.85,16.3625 C14.1625,16.84375 13.3375,17.11875 12.5125,17.25625 C11.6875,17.39375 10.79375,17.39375 9.96875,17.25625 C9.14375,17.11875 8.31875,16.70625 7.63125,16.225 C6.53125,15.46875 5.6375,14.3 5.225,12.99375 C4.74375,11.6875 4.74375,10.24375 5.225,8.86875 C5.56875,7.975 6.05,7.08125 6.7375,6.39375 C7.5625,5.5 8.6625,4.88125 9.9,4.675 C10.93125,4.46875 11.9625,4.46875 12.99375,4.8125 C13.81875,5.0875 14.64375,5.56875 15.2625,6.11875 C15.88125,5.5 16.56875,4.8125 17.1875,4.19375 C17.53125,3.85 17.875,3.50625 18.21875,3.1625 C17.25625,2.26875 16.0875,1.5125 14.85,1.03125 C12.58125,0.275 10.0375,0.275 7.76875,1.03125 Z" id="Path" fill="#FFFFFF"></path>
                        <path d="M7.76875,1.03125 C10.0375,0.275 12.58125,0.275 14.85,1.1 C16.0875,1.58125 17.25625,2.26875 18.21875,3.23125 C17.875,3.575 17.53125,3.91875 17.1875,4.2625 C16.56875,4.88125 15.88125,5.56875 15.2625,6.1875 C14.64375,5.56875 13.81875,5.0875 12.99375,4.88125 C12.03125,4.60625 10.93125,4.5375 9.9,4.74375 C8.73125,5.01875 7.63125,5.6375 6.7375,6.4625 C6.05,7.15 5.5,8.04375 5.225,8.9375 C4.05625,8.04375 2.95625,7.15 1.7875,6.25625 C3.025,3.85 5.225,1.925 7.76875,1.03125 Z" id="Path" fill="#EA4335"></path>
                        <path d="M0.89375,8.9375 C1.1,8.04375 1.375,7.15 1.7875,6.25625 C2.95625,7.15 4.05625,8.04375 5.225,8.9375 C4.74375,10.24375 4.74375,11.6875 5.225,13.0625 C4.05625,13.95625 2.95625,14.85 1.7875,15.74375 C0.75625,13.6125 0.4125,11.20625 0.89375,8.9375 Z" id="Path" fill="#FBBC05"></path>
                        <path d="M11.20625,9.00625 C14.50625,9.00625 17.80625,9.00625 21.10625,9.00625 C21.45,10.8625 21.38125,12.7875 20.83125,14.575 C20.35,16.225 19.45625,17.7375 18.15,18.975 C17.05,18.08125 15.95,17.25625 14.78125,16.3625 C15.88125,15.60625 16.6375,14.4375 16.9125,13.13125 C14.9875,13.13125 13.0625,13.13125 11.20625,13.13125 C11.20625,11.75625 11.20625,10.38125 11.20625,9.00625 Z" id="Path" fill="#4285F4"></path>
                        <path d="M1.7875,15.74375 C2.95625,14.85 4.05625,13.95625 5.225,13.0625 C5.6375,14.36875 6.53125,15.5375 7.63125,16.29375 C8.31875,16.775 9.14375,17.11875 9.96875,17.325 C10.79375,17.4625 11.61875,17.4625 12.5125,17.325 C13.3375,17.1875 14.1625,16.84375 14.85,16.43125 C15.95,17.325 17.05,18.15 18.21875,19.04375 C16.98125,20.14375 15.5375,20.9 13.8875,21.3125 C12.1,21.725 10.24375,21.725 8.525,21.24375 C7.15,20.9 5.84375,20.2125 4.675,19.31875 C3.50625,18.2875 2.475,17.05 1.7875,15.74375 Z" id="Path" fill="#34A853"></path>
                    </g>
                </g>
            </g>
        </g>
        <g id="Page"></g>
        <g id="Page"></g>
    </g>
</svg>