<?xml version="1.0" encoding="UTF-8"?>
<svg width="120px" height="120px" viewBox="0 0 120 120" version="1.1" xmlns="http://www.w3.org/2000/svg" xmlns:xlink="http://www.w3.org/1999/xlink">
    <!-- Generator: Sketch 52.4 (67378) - http://www.bohemiancoding.com/sketch -->
    <title>Group 12</title>
    <desc>Created with Sketch.</desc>
    <defs>
        <polygon id="path-1" points="0.442324324 0.0412972973 4.29043243 0.0412972973 4.29043243 18.9189189 0.442324324 18.9189189"></polygon>
    </defs>
    <g id="Home" stroke="none" stroke-width="1" fill="none" fill-rule="evenodd">
        <g id="Homepage" transform="translate(-359.000000, -512.000000)">
            <g id="Group-12" transform="translate(359.000000, 512.000000)">
                <path d="M119.49027,59.7451351 C119.49027,26.7489189 92.7416216,0.00027027027 59.7454054,0.00027027027 C26.7486486,0.00027027027 0,26.7489189 0,59.7451351 C0,92.07 25.6724324,118.394865 57.7394595,119.453243 L57.7394595,100.612703 L61.5875676,100.612703 L61.5875676,119.459189 C93.7313514,118.485135 119.49027,92.1245946 119.49027,59.7451351" id="Fill-1" fill="#B5ACA5"></path>
                <path d="M68.4741081,36.0847027 C65.0281622,36.0847027 62.2346486,38.1809189 62.2346486,40.7668649 C62.2346486,43.3528108 65.0281622,45.449027 68.4741081,45.449027 C71.9200541,45.449027 74.7135676,43.3528108 74.7135676,40.7668649 C74.7135676,38.1809189 71.9200541,36.0847027 68.4741081,36.0847027" id="Fill-3" fill="#F4ECDD"></path>
                <g id="Group-7" transform="translate(57.297297, 100.571351)">
                    <mask id="mask-2" fill="white">
                        <use xlink:href="#path-1"></use>
                    </mask>
                    <g id="Clip-6"></g>
                    <path d="M0.442324324,0.0412972973 L0.442324324,18.8818378 C1.10827027,18.904 1.77637838,18.9191351 2.44772973,18.9191351 C3.06448649,18.9191351 3.678,18.9067027 4.29043243,18.8877838 L4.29043243,0.0412972973 L0.442324324,0.0412972973 Z" id="Fill-5" fill="#000000" mask="url(#mask-2)"></path>
                </g>
                <path d="M68.4741081,45.4491351 C65.0281622,45.4491351 62.2346486,43.3529189 62.2346486,40.766973 C62.2346486,38.181027 65.0281622,36.0848108 68.4741081,36.0848108 C71.9200541,36.0848108 74.7135676,38.181027 74.7135676,40.766973 C74.7135676,43.3529189 71.9200541,45.4491351 68.4741081,45.4491351 M69.2654595,26.7177838 C63.7297838,26.7199459 51.0308649,27.5377838 45.0892432,44.1329189 C39.1476216,60.7285946 29.5178919,66.8750811 20.7081622,75.0583243 C19.2400541,76.4221081 18.2611351,77.7021081 17.6492432,78.8880541 C15.2200541,83.5967027 20.2065405,88.7058919 25.0157297,86.4821081 C26.9503243,85.5875135 29.4205946,84.4080541 32.1816757,83.0037297 C36.5649189,80.774 45.0535676,80.6280541 50.2000541,80.7767027 L54.1768108,80.9723784 C54.3746486,80.986973 54.4822162,80.9961622 54.4822162,80.9961622 C54.4822162,80.9961622 55.3843784,80.9691351 56.9103243,80.8372432 C57.966,80.7458919 59.3205946,80.6037297 60.8870811,80.3853514 C61.7405946,80.2664324 62.6562703,80.1242703 63.6211351,79.9550811 L67.5973514,79.1491351 C77.8741081,76.7718378 90.8811351,71.366973 93.6465405,59.1199459 C98.358973,38.2523784 77.1541081,26.7156216 69.2654595,26.7177838" id="Fill-8" fill="#8C2632"></path>
                <path d="M66.2390811,73.9860541 L66.1834054,73.9860541 C65.2936757,73.9860541 64.3639459,74.7125405 64.3639459,75.6017297 L64.3639459,76.1482162 L64.3639459,87.6465946 L64.3639459,89.8601081 L64.3639459,90.9525405 C64.3639459,91.8417297 63.8515135,92.904973 62.9623243,92.904973 L62.9055676,92.904973 C62.0169189,92.904973 61.1207027,91.8417297 61.1207027,90.9525405 L61.1207027,89.8601081 L61.1207027,87.6465946 L61.1207027,76.1482162 L61.1207027,75.6017297 C61.1207027,74.7125405 60.5742162,73.9860541 59.6844865,73.9860541 L59.6288108,73.9860541 C58.7396216,73.9860541 58.418,74.7125405 58.418,75.6017297 L58.418,76.1482162 L58.418,87.6465946 L58.418,89.8601081 L58.418,90.9525405 C58.418,91.8417297 57.2969189,92.904973 56.4077297,92.904973 L56.3515135,92.904973 C55.4623243,92.904973 54.6342162,91.8417297 54.6342162,90.9525405 L54.6342162,89.8601081 L54.6342162,87.6465946 L54.6342162,76.1482162 L54.6342162,75.6017297 C54.6342162,74.7125405 54.0196216,73.9860541 53.1298919,73.9860541 L53.0747568,73.9860541 C52.185027,73.9860541 51.390973,74.7125405 51.390973,75.6017297 L51.390973,87.6465946 L51.390973,89.8601081 L51.390973,94.432 C51.390973,99.1303784 55.0693514,102.394703 59.7693514,102.394703 C64.4688108,102.394703 68.1477297,99.1303784 68.1477297,94.432 L68.1477297,89.8601081 L68.1477297,87.6465946 L68.1477297,75.6017297 C68.1477297,74.7125405 67.1288108,73.9860541 66.2390811,73.9860541" id="Fill-10" fill="#000000"></path>
            </g>
        </g>
        <g id="Page"></g>
        <g id="Page"></g>
    </g>
</svg>