<?xml version="1.0" encoding="UTF-8"?>
<svg width="113px" height="113px" viewBox="0 0 113 113" version="1.1" xmlns="http://www.w3.org/2000/svg" xmlns:xlink="http://www.w3.org/1999/xlink">
    <!-- Generator: Sketch 52.4 (67378) - http://www.bohemiancoding.com/sketch -->
    <title>User 02b Copy</title>
    <desc>Created with Sketch.</desc>
    <defs>
        <circle id="path-1" cx="56.5" cy="56.5" r="56.5"></circle>
        <linearGradient x1="50%" y1="0%" x2="50%" y2="100%" id="linearGradient-3">
            <stop stop-color="#F7B186" offset="0%"></stop>
            <stop stop-color="#FFC299" offset="100%"></stop>
        </linearGradient>
        <path d="M84.75,19.7026169 C87.1406352,24.5633245 89.0239685,32.5988801 90.4,43.8092836 L0,43.8092836 C1.37668946,32.5976239 3.26002279,24.5620683 5.65,19.7026169 C7.23807422,16.4736449 15.3991853,11.7516378 30.1333333,5.53659562 C30.4267376,2.69560881 30.9289598,1.07151128 31.64,0.66430303 C32.7065603,0.0534906522 57.4894835,0.0535565854 58.76,0.66430303 C59.607011,1.07146733 60.1092332,2.69471624 60.2666667,5.53404977 C75.0039598,11.7572381 83.1650709,16.4800938 84.75,19.7026169 Z" id="path-4"></path>
    </defs>
    <g id="Home" stroke="none" stroke-width="1" fill="none" fill-rule="evenodd">
        <g id="Homepage---Step5-Sign-Up" transform="translate(-594.000000, -337.000000)">
            <g id="User" transform="translate(362.000000, 292.000000)">
                <g id="User-02b-Copy" transform="translate(232.000000, 45.000000)">
                    <mask id="mask-2" fill="white">
                        <use xlink:href="#path-1"></use>
                    </mask>
                    <use id="Mask" fill="#B5ACA5" fill-rule="nonzero" xlink:href="#path-1"></use>
                    <path d="M68.5533333,66.2933333 L68.5533333,76.84 L44.4466667,76.84 C44.4769011,66.4444043 44.4769011,57.8046596 44.4466667,50.9207659 C39.0482542,43.9235466 39.0482542,39.55 43.3166667,35.03 C46.162275,32.0166667 57.7133861,29.7566667 77.97,28.25 C79.489847,42.8671656 80.3687359,52.1582768 80.6066667,56.1233333 C80.7501953,58.5152019 82.3016667,66.2933333 76.275,66.2933333 C74.0160593,66.2933333 71.4421704,66.2933333 68.5533333,66.2933333 Z" id="Mask" fill="url(#linearGradient-3)" mask="url(#mask-2)"></path>
                    <path d="M68.5533333,65.54 C63.0288889,64.9122222 58.3833333,63.4055556 54.6166667,61.02 C56.3744444,65.7911111 61.02,68.93 68.5533333,70.4366667 L68.5533333,65.54 Z" id="Path-48" fill="#F08956" mask="url(#mask-2)"></path>
                    <path d="M49.351002,39.6273603 C48.1530569,38.5985724 46.6977132,37.9060397 44.6403965,38.9749631 C39.7628094,41.5092188 42.999954,51.2774923 48.4582935,51.0868829 C50.3404796,51.0211555 49.4781274,54.7745206 44.4466667,57.2533333 C44.4466667,53.2983333 38.42,43.505 37.8944018,34.5883694 C31.8283333,32.3303378 33.335,23.295253 37.5000375,23.295253 C36.8338758,15.0117757 50.0966667,10.735 55.2321521,15.4870152 C60.455,9.22833333 73.6383333,12.43 74.4345026,17.8596142 C83.4994685,13.0203035 89.4583333,26.9316667 80.9701716,32.3303378 C77.4774903,34.5517656 69.3066667,35.3982996 57.5122925,35.3982996 C51.8523329,35.3982996 55.1073078,48.645716 56.8766667,52.9216667 C59.1366667,58.3833333 71.755,59.1366667 75.71,58.5716667 C78.7984759,58.1304558 80.4183333,56.8766667 80.6066667,56.1233333 C83.4316667,63.6566667 79.8533052,68.1766667 74.2033333,68.1766667 C64.5983333,68.1766667 54.9933333,65.3516667 53.4866667,58.3833333 C52.2875774,52.8375455 52.3532945,43.8876891 49.351002,39.6273603 Z" id="Combined-Shape" fill="#F4ECDD" mask="url(#mask-2)"></path>
                    <g id="Group-2" mask="url(#mask-2)">
                        <g transform="translate(11.300000, 71.943333)">
                            <mask id="mask-5" fill="white">
                                <use xlink:href="#path-4"></use>
                            </mask>
                            <use id="Combined-Shape" stroke="none" fill="#B94553" fill-rule="evenodd" xlink:href="#path-4"></use>
                            <path d="M-6.02666667,13.1833333 L95.2966667,13.1833333 L95.2966667,16.1966667 L-6.02666667,16.1966667 L-6.02666667,13.1833333 Z M-6.02666667,20.7166667 L95.2966667,20.7166667 L95.2966667,23.73 L-6.02666667,23.73 L-6.02666667,20.7166667 Z M-6.02666667,28.25 L95.2966667,28.25 L95.2966667,31.2633333 L-6.02666667,31.2633333 L-6.02666667,28.25 Z M-6.02666667,35.7833333 L95.2966667,35.7833333 L95.2966667,38.7966667 L-6.02666667,38.7966667 L-6.02666667,35.7833333 Z" id="Combined-Shape" stroke="none" fill="#8C2632" fill-rule="nonzero" mask="url(#mask-5)"></path>
                        </g>
                    </g>
                </g>
            </g>
        </g>
        <g id="Page"></g>
        <g id="Page"></g>
    </g>
</svg>