<?xml version="1.0" encoding="UTF-8"?>
<svg width="120px" height="120px" viewBox="0 0 120 120" version="1.1" xmlns="http://www.w3.org/2000/svg" xmlns:xlink="http://www.w3.org/1999/xlink">
    <!-- Generator: Sketch 52.4 (67378) - http://www.bohemiancoding.com/sketch -->
    <title>Group 9</title>
    <desc>Created with Sketch.</desc>
    <g id="Home" stroke="none" stroke-width="1" fill="none" fill-rule="evenodd">
        <g id="Homepage" transform="translate(-660.000000, -512.000000)">
            <g id="Group-9" transform="translate(660.000000, 512.000000)">
                <path d="M119.49027,60.0155837 C119.49027,26.8700633 92.7416216,0.000380090498 59.7454054,0.000380090498 C26.7486486,0.000380090498 0,26.8700633 0,60.0155837 C0,92.4867149 25.6724324,118.930697 57.7394595,119.993864 L61.5875676,119.999837 C93.7313514,119.021376 119.49027,92.5415566 119.49027,60.0155837" id="Fill-1" fill="#B5ACA5"></path>
                <path d="M57.7095676,84.1527421 L57.7095676,105.960163 L44.5144324,110.329032 C43.4084865,110.741701 43.7030811,112.388036 44.8825405,112.388036 L74.709027,112.388036 C75.7760541,112.388036 76.042,110.899167 75.042,110.526136 L61.3133514,105.960163 L61.3133514,84.1934661 C60.1322703,84.5121991 58.8852432,84.4975385 57.7095676,84.1527421" id="Fill-3" fill="#000000"></path>
                <path d="M51.3012973,53.5076742 C54.9537297,53.5076742 58.1061622,55.6551855 59.5780541,58.7616109 C61.0494054,55.6551855 64.2018378,53.5076742 67.8542703,53.5076742 C71.7807568,53.5076742 75.1277838,55.9896652 76.4315676,59.476181 C76.9358919,55.8864977 77.1115676,51.835276 76.3288649,48.1652308 L74.0894054,36.2721991 L45.3780541,36.2721991 L42.8348108,48.1652308 C41.9585946,52.274552 41.8423784,56.4283982 42.4196757,60.4481267 C43.4234595,56.4593484 47.0185946,53.5076742 51.3012973,53.5076742" id="Fill-5" fill="#F4ECDD"></path>
                <path d="M67.8544324,52.6151674 C64.202,52.6151674 61.0495676,55.6553484 59.5776757,58.7612308 C58.1063243,55.6553484 54.9538919,52.6151674 51.3014595,52.6151674 C47.0187568,52.6151674 43.4236216,56.4595113 42.4192973,60.4477466 C42.449027,60.6529955 42.4841622,60.8571584 42.5176757,61.0618643 C42.5663243,61.3648507 42.6187568,61.6672941 42.6760541,61.9686516 C42.6868649,62.0267511 42.6982162,62.0843077 42.7095676,62.1418643 C42.7701081,62.4535385 42.8333514,62.7641267 42.9025405,63.073629 C42.9101081,63.1083801 42.9182162,63.1425882 42.9263243,63.1767964 C43.3138919,64.8953484 43.8295676,66.5802353 44.4695676,68.2173394 C44.4825405,68.2515475 44.494973,68.2857557 44.5084865,68.3194208 C44.6192973,68.6001448 44.734973,68.8786968 44.8533514,69.1567059 C44.8830811,69.2278371 44.9122703,69.2989683 44.9430811,69.3695566 C45.054973,69.6280181 45.1706486,69.8843077 45.2884865,70.1400543 C45.3279459,70.2258462 45.3674054,70.312181 45.4079459,70.3974299 C45.5241622,70.6444887 45.6436216,70.8899186 45.7657838,71.1342624 C45.8117297,71.2260271 45.8582162,71.3183348 45.9052432,71.4100995 C46.0274054,71.6484706 46.1517297,71.8862986 46.2792973,72.1224977 C46.3301081,72.2164344 46.382,72.3098281 46.4338919,72.4037647 C46.5625405,72.6372489 46.6928108,72.87019 46.8274054,73.1004163 C46.8803784,73.192181 46.9355135,73.2823167 46.9895676,73.3729955 C47.1279459,73.6048507 47.2663243,73.8367059 47.4095676,74.0653032 C47.4555135,74.1391493 47.5041622,74.2113665 47.5511892,74.2846697 C48.0063243,74.9997828 48.489027,75.6980633 48.9971351,76.3800543 C49.1068649,76.5272036 49.214973,76.6759819 49.3274054,76.8215023 C49.4387568,76.9659367 49.5538919,77.1081991 49.6674054,77.2515475 C49.7971351,77.4144434 49.9263243,77.5773394 50.0592973,77.7380633 C50.1684865,77.870552 50.2798378,78.0008688 50.3911892,78.1317285 C50.5355135,78.3011403 50.6798378,78.470009 50.8274054,78.6367059 C50.9344324,78.7577919 51.0430811,78.8777919 51.1517297,78.9972489 C51.3106486,79.1720905 51.4717297,79.3458462 51.6344324,79.5179729 C51.7376757,79.6271131 51.842,79.7357104 51.9468649,79.8437647 C52.1230811,80.0251222 52.3025405,80.2043077 52.4830811,80.3824072 C52.5803784,80.4779729 52.6771351,80.5740814 52.7760541,80.6691041 C52.9765946,80.8618643 53.1809189,81.0519095 53.3863243,81.2403258 C53.4701081,81.3168869 53.5522703,81.3945339 53.6365946,81.470552 C53.8830811,81.6920905 54.1344324,81.9098281 54.3879459,82.1248507 C54.4355135,82.1655747 54.482,82.2068416 54.5295676,82.2470226 C54.8403784,82.5076561 55.1560541,82.7634027 55.4771351,83.0142624 L55.4814595,83.0180633 C55.6063243,83.1152579 55.7338919,83.2064796 55.8636216,83.2939005 C55.9387568,83.3405973 56.062,83.4166154 56.1371351,83.4633122 C56.2068649,83.5056652 56.2760541,83.5491041 56.3468649,83.5881991 C56.4647027,83.6528145 56.5836216,83.713086 56.7036216,83.7700995 C56.7284865,83.7820452 56.7528108,83.7945339 56.7776757,83.8059367 C56.9138919,83.8689231 57.0517297,83.9275656 57.1911892,83.9807783 C57.2009189,83.9845792 57.2101081,83.9883801 57.2198378,83.992181 C57.3814595,84.0535385 57.5452432,84.1045792 57.7095676,84.152905 C58.8852432,84.4977014 60.1322703,84.511819 61.3133514,84.193086 C61.5263243,84.1360724 61.7371351,84.0698281 61.9447027,83.991095 C62.2495676,83.8754389 62.5479459,83.7369774 62.8371351,83.5762534 C62.8511892,83.5681086 62.8652432,83.5594208 62.8792973,83.551276 C63.0101081,83.4768869 63.1392973,83.3992398 63.2663243,83.3156199 C63.3171351,83.2819548 63.3663243,83.2434027 63.4165946,83.2081086 C63.5068649,83.1445792 63.5976757,83.0832217 63.6852432,83.0142624 C63.8306486,82.9007783 63.9711892,82.7834932 64.114973,82.6678371 C64.2701081,82.5418643 64.4274054,82.4180633 64.5803784,82.2904615 C64.7430811,82.1541719 64.902,82.0146244 65.0614595,81.8756199 C65.1965946,81.7588778 65.3322703,81.6426787 65.4652432,81.5243077 C65.6295676,81.3771584 65.7901081,81.2272941 65.9506486,81.0779729 C66.0728108,80.9644887 66.1955135,80.8515475 66.3160541,80.7364344 C66.4814595,80.5784253 66.6436216,80.4182443 66.8052432,80.2569774 C66.9144324,80.1489231 67.0230811,80.0397828 67.1306486,79.9300995 C67.2982162,79.7590588 67.4630811,79.5863891 67.6268649,79.4126335 C67.7203784,79.312724 67.8133514,79.2128145 67.9057838,79.111819 C68.0771351,78.9244887 68.2479459,78.7360724 68.414973,78.5454842 C68.489027,78.4613213 68.5609189,78.3766154 68.6338919,78.2924525 C68.814973,78.0817738 68.994973,77.870009 69.1711892,77.6555294 C69.2122703,77.6050317 69.2528108,77.553991 69.2938919,77.5029502 C71.1776757,75.1773394 72.7403784,72.630733 73.9630811,69.9348054 C74.0133514,69.8234932 74.0533514,69.710009 74.0868649,69.592724 C74.2960541,68.8634932 75.7047027,64.6499186 76.4317297,59.4763439 C75.1279459,55.9898281 71.7809189,52.6151674 67.8544324,52.6151674" id="Fill-7" fill="#8C2632"></path>
            </g>
        </g>
        <g id="Page"></g>
        <g id="Page"></g>
    </g>
</svg>