<?xml version="1.0" encoding="UTF-8"?>
<svg width="30px" height="30px" viewBox="0 0 30 30" version="1.1" xmlns="http://www.w3.org/2000/svg" xmlns:xlink="http://www.w3.org/1999/xlink">
    <!-- Generator: Sketch 52.4 (67378) - http://www.bohemiancoding.com/sketch -->
    <title>if_instagram_circle_black_107150</title>
    <desc>Created with Sketch.</desc>
    <g id="Contact" stroke="none" stroke-width="1" fill="none" fill-rule="evenodd">
        <g transform="translate(-650.000000, -545.000000)" fill="#010101" id="Group-5">
            <g transform="translate(209.000000, 281.000000)">
                <g id="Group-4" transform="translate(441.000000, 264.000000)">
                    <g id="if_instagram_circle_black_107150">
                        <path d="M19.6355,11.289 L19.6355,11.286 C19.8865,11.286 20.138,11.291 20.3895,11.285 C20.7125,11.277 20.9755,11 20.9755,10.6765 C20.9755,10.195 20.9755,9.713 20.9755,9.2315 C20.9755,8.886 20.702,8.6115 20.3575,8.611 C19.877,8.611 19.3965,8.6105 18.916,8.611 C18.572,8.6115 18.298,8.887 18.298,9.2325 C18.2975,9.71 18.296,10.1875 18.2995,10.665 C18.3,10.7365 18.3135,10.8105 18.336,10.878 C18.4225,11.132 18.6555,11.288 18.9405,11.2895 C19.172,11.2895 19.404,11.289 19.6355,11.289 Z M15,11.9085 C13.308,11.9075 11.9325,13.269 11.909,14.953 C11.8845,16.683 13.269,18.0535 14.929,18.089 C16.656,18.126 18.053,16.746 18.0895,15.0675 C18.127,13.3375 16.731,11.9075 15,11.9085 Z M9.023,13.558 L9.023,13.599 C9.023,15.8565 9.0225,18.114 9.023,20.3715 C9.023,20.696 9.304,20.9755 9.629,20.9755 C13.209,20.976 16.7885,20.976 20.3685,20.9755 C20.6965,20.9755 20.976,20.697 20.976,20.3695 C20.9765,18.115 20.976,15.8595 20.976,13.6055 L20.976,13.5585 L19.52,13.5585 C19.7255,14.2155 19.7885,14.884 19.708,15.5655 C19.6275,16.247 19.4075,16.881 19.05,17.467 C18.6925,18.053 18.228,18.5395 17.6605,18.926 C16.1885,19.929 14.25,20.017 12.6875,19.14 C11.898,18.6975 11.278,18.08 10.845,17.2835 C10.2005,16.097 10.0975,14.851 10.4755,13.558 C9.9915,13.558 9.5105,13.558 9.023,13.558 Z M21.1025,22.6275 C21.182,22.6145 21.2615,22.603 21.34,22.586 C21.963,22.4535 22.472,21.934 22.594,21.3075 C22.6065,21.239 22.6165,21.171 22.6275,21.103 L22.6275,8.897 C22.617,8.8305 22.6075,8.763 22.595,8.6965 C22.461,8.013 21.897,7.4825 21.205,7.3875 C21.176,7.384 21.1485,7.3775 21.12,7.3725 L8.8805,7.3725 C8.807,7.386 8.7325,7.396 8.66,7.4125 C7.984,7.5665 7.484,8.1105 7.3875,8.7955 C7.3835,8.824 7.3775,8.8525 7.373,8.881 L7.373,21.12 C7.387,21.197 7.398,21.2755 7.4155,21.3525 C7.565,22.0135 8.129,22.526 8.8005,22.6125 C8.8325,22.6165 8.8655,22.623 8.898,22.6275 L21.1025,22.6275 Z M15,30 C6.716,30 0,23.284 0,15 C0,6.7155 6.716,0 15,0 C23.284,0 30,6.7155 30,15 C30,23.284 23.284,30 15,30 Z" id="Shape"></path>
                    </g>
                </g>
            </g>
        </g>
    </g>
</svg>