<?xml version="1.0" encoding="UTF-8"?>
<svg width="30px" height="30px" viewBox="0 0 30 30" version="1.1" xmlns="http://www.w3.org/2000/svg" xmlns:xlink="http://www.w3.org/1999/xlink">
    <!-- Generator: Sketch 52.4 (67378) - http://www.bohemiancoding.com/sketch -->
    <title>if_46-facebook_104458</title>
    <desc>Created with Sketch.</desc>
    <g id="Contact" stroke="none" stroke-width="1" fill="none" fill-rule="evenodd">
        <g transform="translate(-705.000000, -546.000000)" fill="#000000" fill-rule="nonzero" id="Group-5">
            <g transform="translate(209.000000, 281.000000)">
                <g id="Group-4" transform="translate(441.000000, 264.000000)">
                    <g id="if_46-facebook_104458" transform="translate(55.000000, 1.000000)">
                        <path d="M15.2082,0.0942 C7.0482,0.0942 0.4332,6.7104 0.4332,14.8692 C0.4332,23.0292 7.0482,29.643 15.2082,29.643 C23.3682,29.643 29.9832,23.0292 29.9832,14.8692 C29.9832,6.7104 23.3676,0.0942 15.2082,0.0942 Z M19.1184,14.8074 L16.56,14.8074 C16.56,18.8958 16.56,23.9316 16.56,23.9316 L12.768,23.9316 C12.768,23.9316 12.768,18.9474 12.768,14.8074 L10.9644,14.8074 L10.9644,11.586 L12.768,11.586 L12.768,9.4986 C12.768,8.0046 13.4772,5.6724 16.5954,5.6724 L19.4034,5.6832 L19.4034,8.8122 C19.4034,8.8122 17.6958,8.8122 17.3646,8.8122 C17.0316,8.8122 16.5606,8.9784 16.5606,9.6888 L16.5606,11.5866 L19.4514,11.5866 L19.1184,14.8074 Z" id="Shape"></path>
                    </g>
                </g>
            </g>
        </g>
    </g>
</svg>