<?xml version="1.0" encoding="UTF-8"?>
<svg width="113px" height="113px" viewBox="0 0 113 113" version="1.1" xmlns="http://www.w3.org/2000/svg" xmlns:xlink="http://www.w3.org/1999/xlink">
    <!-- Generator: Sketch 52.4 (67378) - http://www.bohemiancoding.com/sketch -->
    <title>Group 7</title>
    <desc>Created with Sketch.</desc>
    <defs>
        <circle id="path-1" cx="56.5" cy="56.5" r="56.5"></circle>
        <path d="M66.3166667,66.5885655 C59.4111111,71.6107877 52.5055556,75.6285655 45.6,75.6285655 C38.6944444,75.6285655 31.7888889,71.6107877 24.8833333,66.5885655 C30.5753892,64.8562006 33.4625634,62.2701761 33.5448559,58.830492 C33.5431705,58.2172901 33.5403088,57.3465796 33.5362705,55.7113412 C33.5356294,55.4517083 33.5349586,55.1856966 33.5342581,54.9136623 C33.5229219,50.5290887 33.5044541,44.7450689 33.4786393,38.8674326 C28.0802268,31.8702133 30.0632775,23.6666971 31.7551336,23.871283 C33.8307938,24.12228 51.7989176,7.07148192 55.2454458,6.19905542 C58.6919739,5.32662892 67.4466667,8.14538366 68.9533333,16.0083333 C70.46,23.871283 71.0897748,43.6905682 65.375,51.6033333 C63.7487656,53.8550425 61.1877609,54.7357552 57.6919859,54.2454715 C57.6872587,55.8910613 57.6773787,56.81462 57.6533333,58.6785655 C57.6979837,62.2754464 60.5857615,64.8579662 66.3166667,66.5885655 Z" id="path-3"></path>
        <path d="M48.5766667,66.7266667 L50.46,101.38 L41.42,101.38 L43.3033333,66.7266667 C44.4751852,65.4711111 45.3540741,64.8433333 45.94,64.8433333 C46.5259259,64.8433333 47.4048148,65.4711111 48.5766667,66.7266667 Z" id="path-5"></path>
    </defs>
    <g id="Contact" stroke="none" stroke-width="1" fill="none" fill-rule="evenodd">
        <g transform="translate(-664.000000, -281.000000)" id="Group-5">
            <g transform="translate(209.000000, 281.000000)">
                <g id="Group-7" transform="translate(455.000000, 0.000000)">
                    <mask id="mask-2" fill="white">
                        <use xlink:href="#path-1"></use>
                    </mask>
                    <use id="Mask" fill="#B5ACA5" fill-rule="nonzero" xlink:href="#path-1"></use>
                    <g id="Group-3" mask="url(#mask-2)">
                        <g transform="translate(-17.900000, 12.430000)">
                            <mask id="mask-4" fill="white">
                                <use xlink:href="#path-3"></use>
                            </mask>
                            <use id="Combined-Shape" stroke="none" fill="#FAB78D" fill-rule="evenodd" xlink:href="#path-3"></use>
                            <path d="M84.85,78.1426169 C87.2406352,83.0033245 89.1239685,91.0388801 90.5,102.249284 L0.1,102.249284 C1.47668946,91.0376239 3.36002279,83.0020683 5.75,78.1426169 C8.13997721,73.2831655 16.3135527,68.5998084 30.2707266,64.0925459 C41.8394226,68.6118298 48.9189246,68.6109153 60.3180023,64.09 C74.2820322,68.5977036 82.4593648,73.2819093 84.85,78.1426169 Z" id="Combined-Shape" stroke="none" fill="#000000" fill-rule="nonzero"></path>
                            <mask id="mask-6" fill="white">
                                <use xlink:href="#path-5"></use>
                            </mask>
                            <use id="Mask" stroke="none" fill="#B5ACA5" fill-rule="nonzero" xlink:href="#path-5"></use>
                            <path d="M45.7866667,64.8400722 L42.02,71.6233333 L30.3433333,64.4666667 L33.7333333,59.57 L45.7866667,64.0226022 L57.84,59.57 L61.23,64.4666667 L49.5533333,71.6233333 L45.7866667,64.8400722 Z" id="Combined-Shape" stroke="none" fill="#EFECE9" fill-rule="evenodd"></path>
                            <path d="M57.6533333,54.24 C52.1288889,53.6122222 47.6088889,52.1055556 44.0933333,49.72 C48.1111111,54.7422222 52.6311111,57.7555556 57.6533333,58.76 L57.6533333,54.24 Z" id="Path-48" stroke="none" fill="#FC9F6A" fill-rule="nonzero"></path>
                            <path d="M31.7067442,39.408851 C29.1115783,33.1672974 18.7117442,20.4562837 27.6759512,12.5462837 C30.6892846,-2.14371627 47.3384109,-0.51781562 58.4500775,2.87218438 C65.9182352,5.15060537 71.5576179,9.65218438 72.7634109,6.26218438 C80.2967442,12.5462837 76.5241865,18.6921844 71.5576179,20.4562837 C67.0503063,22.0572574 59.4282577,23.6579504 46.4695373,22.1512837 C44.1545883,21.8821324 44.6393866,28.9719605 43.4022555,29.7385757 C41.5465588,30.8884983 40.1059512,23.6579504 35.0180799,25.8289704 C29.9302086,27.9999903 32.9492846,38.0667546 38.4109512,38.0667546 C40.2942846,38.0667546 41.2359512,43.2446171 36.1509512,45.6929504 C32.4600775,47.5071844 33.3929954,43.464402 31.7067442,39.408851 Z" id="Path-22" stroke="none" fill="#000000" fill-rule="nonzero"></path>
                        </g>
                    </g>
                    <g id="Group" mask="url(#mask-2)">
                        <g transform="translate(52.100000, 14.430000)">
                            <path d="M74.1533333,74.5166667 C75.9948148,78.0322222 77.3759259,86.1933333 78.2966667,99 L0.703333333,99 C1.62407407,86.1933333 3.00518519,78.0322222 4.84666667,74.5166667 C7.60888889,69.2433333 19.16,63.2166667 39.5,56.4366667 C59.84,63.2166667 71.3911111,69.2433333 74.1533333,74.5166667 Z" id="Rectangle" fill="#8C2632" transform="translate(39.500000, 77.718333) scale(-1, 1) translate(-39.500000, -77.718333) "></path>
                            <path d="M68.9520549,52.0714991 L7.75970899,44.6763522 C4.74283888,28.6610063 8.32117222,18.5704997 18.494709,14.4048324 C23.1977372,-1.005 41.5028623,0.248414063 46.6911501,1.50469158 C64.3476903,5.77999695 71.7679919,22.6355994 68.9520549,52.0714991 Z" id="Combined-Shape" fill="#F4ECDD" transform="translate(38.128869, 26.443445) scale(-1, 1) translate(-38.128869, -26.443445) "></path>
                            <path d="M22.6641796,60.9566667 L22.6641796,38.3566667 C13.2396961,38.2157221 15.0777796,21.8842632 24.5475129,26.8683333 C26.2425129,27.6216667 30.5741796,25.55 29.0675129,20.465 C39.2375129,27.9983333 53.4093752,14.776994 54.3041796,22.9133333 C56.0651671,38.9257639 52.6579439,52.0867603 43.6227438,52.0877047 C42.735617,52.0877975 41.8713036,52.1177839 40.7441796,51.9166667 L40.7441796,60.9566667 C37.7949268,62.7144444 34.8456741,63.5933333 31.8964213,63.5933333 C28.9471686,63.5933333 25.8697546,62.7144444 22.6641796,60.9566667 Z" id="Mask" fill="#FAB78D" transform="translate(35.602090, 41.875207) scale(-1, 1) translate(-35.602090, -41.875207) "></path>
                            <path d="M43.6433333,51.9166667 L43.6433333,54.93 C39.5,54.93 33.5988889,52.2305556 30.46,46.8316667 C34.2266667,49.3427778 38.6211111,51.0377778 43.6433333,51.9166667 Z" id="Path-2" fill="#FC9F6A" transform="translate(37.051667, 50.880833) scale(-1, 1) translate(-37.051667, -50.880833) "></path>
                            <path d="M39.4875336,63.2072143 C42.0643682,63.0840101 48.54,61.7506448 48.54,58.8700477 L48.54,56.4366667 C49.2308203,56.4366667 51.2088347,58.0685202 52.226029,59.45 C56.2474962,64.9116667 51.7868493,69.8083333 48.1491629,69.8083333 C43.5588559,69.8083333 40.5177038,65.9732929 39.5,64.1280866 C38.4822962,65.9732929 35.4411441,69.8083333 30.8508371,69.8083333 C27.2131507,69.8083333 22.7525038,64.9116667 26.773971,59.45 C27.7911653,58.0685202 29.7691797,56.4366667 30.46,56.4366667 L30.46,58.8700477 C30.46,61.7506452 36.7652223,63.0840106 39.4875349,63.2072144 L39.4875336,63.2072143 Z" id="Combined-Shape" fill="#EFECE9" transform="translate(39.500000, 63.122500) scale(-1, 1) translate(-39.500000, -63.122500) "></path>
                        </g>
                    </g>
                </g>
            </g>
        </g>
    </g>
</svg>