<?xml version="1.0" encoding="UTF-8"?>
<svg width="120px" height="120px" viewBox="0 0 120 120" version="1.1" xmlns="http://www.w3.org/2000/svg" xmlns:xlink="http://www.w3.org/1999/xlink">
    <!-- Generator: Sketch 52.4 (67378) - http://www.bohemiancoding.com/sketch -->
    <title>Group 10</title>
    <desc>Created with Sketch.</desc>
    <defs>
        <polygon id="path-1" points="0 120 119.49027 120 119.49027 0 0 0"></polygon>
    </defs>
    <g id="Home" stroke="none" stroke-width="1" fill="none" fill-rule="evenodd">
        <g id="Homepage" transform="translate(-960.000000, -512.000000)">
            <g id="Group-10" transform="translate(960.000000, 512.000000)">
                <path d="M119.49027,60.0155837 C119.49027,26.8700633 92.7416216,0.000380090498 59.7454054,0.000380090498 C26.7486486,0.000380090498 0,26.8700633 0,60.0155837 C0,92.4867149 25.6724324,118.930697 57.7394595,119.993864 L61.5875676,119.999837 C93.7313514,119.021376 119.49027,92.5415566 119.49027,60.0155837" id="Fill-1" fill="#B5ACA5"></path>
                <mask id="mask-2" fill="white">
                    <use xlink:href="#path-1"></use>
                </mask>
                <g id="Clip-4"></g>
                <polygon id="Fill-3" fill="#000000" mask="url(#mask-2)" points="53.4659459 73.5648869 56.5897297 73.5648869 56.5897297 40.4845249 53.4659459 40.4845249"></polygon>
                <polygon id="Fill-5" fill="#000000" mask="url(#mask-2)" points="82.7480541 40.4877828 62.4918378 88.1408145 65.3648108 89.3733937 85.621027 41.720362"></polygon>
                <polygon id="Fill-6" fill="#000000" mask="url(#mask-2)" points="24.1876757 41.7201991 44.4438919 89.3732308 47.3163243 88.1411946 27.0606486 40.4876199"></polygon>
                <path d="M86.6816216,33.9643439 C85.9859459,14.0633484 65.9556757,7.27276018 58.692973,6.68090498 L58.6481081,6.69013575 C57.6659459,6.55547511 56.4340541,6.48488688 55.0281081,6.50986425 C53.6221622,6.48488688 52.3902703,6.55547511 51.4081081,6.69013575 L51.3632432,6.68090498 C44.1010811,7.27276018 24.0702703,14.0633484 23.3745946,33.9643439 C22.8313514,49.5133032 26.9821622,45.2584615 28.8237838,42.6537557 C30.2264865,40.6702262 32.0275676,38.9918552 34.1616216,37.840724 C37.6778378,35.9446154 43.0135135,34.7022624 49.2762162,38.6514027 C49.2762162,38.6514027 51.9318919,40.4334842 53.6432432,43.3042534 C54.107027,44.0823529 54.5816216,44.3728507 55.0281081,44.3875113 C55.4745946,44.3728507 55.9491892,44.0823529 56.412973,43.3042534 C58.1243243,40.4334842 60.78,38.6514027 60.78,38.6514027 C67.0427027,34.7022624 72.3783784,35.9446154 75.8945946,37.840724 C78.0286486,38.9918552 79.8297297,40.6702262 81.2324324,42.6537557 C83.0740541,45.2584615 87.2248649,49.5133032 86.6816216,33.9643439" id="Fill-7" fill="#F4ECDD" mask="url(#mask-2)"></path>
                <path d="M36.5221622,67.6662081 L20.7286486,57.0356199 L20.3275676,54.9972489 L17.8978378,53.3617738 C17.2264865,52.910552 16.3183784,53.0908235 15.8686486,53.7646697 L10.9843243,61.0868416 C10.5345946,61.7612308 10.7140541,62.673448 11.3854054,63.1252127 L13.8151351,64.7606878 L15.8443243,64.3577919 L31.6378378,74.9883801 L31.0843243,79.3605068 C30.6637838,82.672181 32.1427027,85.9377014 34.9032432,87.7963439 L71.7048649,112.567385 C74.3886486,114.3739 78.0227027,113.652814 79.8210811,110.956887 L87.9616216,98.752724 C89.76,96.0567964 89.0421622,92.4068416 86.3578378,90.6003258 L49.5562162,65.8292851 C46.7951351,63.9711855 43.2259459,63.8397828 40.3367568,65.4893756 L36.5221622,67.6662081 Z" id="Fill-8" fill="#8C2632" mask="url(#mask-2)"></path>
                <polygon id="Fill-9" fill="#F4ECDD" mask="url(#mask-2)" points="42.5719459 82.3482896 52.3405946 67.7034027 72.9941081 81.6049412 63.2254595 96.2498281"></polygon>
            </g>
        </g>
        <g id="Page"></g>
        <g id="Page"></g>
    </g>
</svg>