<?xml version="1.0" encoding="UTF-8"?>
<svg width="113px" height="113px" viewBox="0 0 113 113" version="1.1" xmlns="http://www.w3.org/2000/svg" xmlns:xlink="http://www.w3.org/1999/xlink">
    <!-- Generator: Sketch 52.4 (67378) - http://www.bohemiancoding.com/sketch -->
    <title>User 06b Copy</title>
    <desc>Created with Sketch.</desc>
    <defs>
        <circle id="path-1" cx="56.5" cy="56.5" r="56.5"></circle>
        <linearGradient x1="50%" y1="0%" x2="50%" y2="100%" id="linearGradient-3">
            <stop stop-color="#1D0024" offset="0%"></stop>
            <stop stop-color="#100014" offset="100%"></stop>
        </linearGradient>
        <linearGradient x1="50%" y1="0%" x2="50%" y2="100%" id="linearGradient-4">
            <stop stop-color="#000000" offset="0%"></stop>
            <stop stop-color="#100014" offset="100%"></stop>
        </linearGradient>
        <linearGradient x1="50%" y1="0%" x2="50%" y2="100%" id="linearGradient-5">
            <stop stop-color="#F7B186" offset="0%"></stop>
            <stop stop-color="#FFC299" offset="100%"></stop>
        </linearGradient>
    </defs>
    <g id="Home" stroke="none" stroke-width="1" fill="none" fill-rule="evenodd">
        <g id="Homepage---Step5-Sign-Up" transform="translate(-734.000000, -337.000000)">
            <g id="User" transform="translate(362.000000, 292.000000)">
                <g id="User-06b-Copy" transform="translate(372.000000, 45.000000)">
                    <mask id="mask-2" fill="white">
                        <use xlink:href="#path-1"></use>
                    </mask>
                    <use id="Mask" fill="#B5ACA5" fill-rule="nonzero" xlink:href="#path-1"></use>
                    <path d="M83.0405697,18.7222036 C84.5472364,12.130537 77.4029637,7.07225179 70.0455697,10.5446661 C52.7189031,18.7222036 62.7730922,30.9638703 68.9880922,29.645537 C75.2030922,28.3272036 81.5339031,25.3138703 83.0405697,18.7222036 Z" id="bun" fill="url(#linearGradient-3)" fill-rule="nonzero" mask="url(#mask-2)" transform="translate(71.816389, 19.580230) scale(-1, 1) translate(-71.816389, -19.580230) "></path>
                    <path d="M64.7866667,60.2666667 C56.6945488,64.1540566 55.514162,63.9458295 37.6666667,49.3433333 C10.735,27.3083333 36.16,7.15666667 63.4683333,17.8916667 C93.0366667,30.8866667 83.1304575,51.4544534 64.7866667,60.2666667 Z" id="hair" fill="url(#linearGradient-4)" fill-rule="nonzero" mask="url(#mask-2)"></path>
                    <path d="M65.54,75.71 C62.7777778,81.7366667 59.2622222,84.75 56.5,84.75 C53.7377778,84.75 50.2222222,81.7366667 47.46,75.71 L47.46,68.1766667 C46.6407229,68.2007464 45.9501674,68.2007464 45.3883333,68.1766667 C36.5783604,67.7990783 33.6342945,53.6272506 35.0168728,39.451217 C36.029377,29.0696745 44.8233333,43.3166667 59.1366667,33.335 C58.5716667,44.2583333 63.28,43.1283333 65.3516667,41.81 C74.7683333,37.4783333 74.9566667,55.1816667 65.6496426,53.8097875 C65.6534196,53.9982436 65.6168721,61.2983144 65.54,75.71 Z" id="Mask" fill="url(#linearGradient-5)" mask="url(#mask-2)"></path>
                    <path d="M47.46,68.1766667 C50.85,67.9255556 55.0729042,66.029594 60.1287126,62.4887821 C58.579542,67.8241053 54.3566378,70.9756223 47.46,71.9433333 L47.46,68.1766667 Z" id="Path-2" fill="#FF9768" fill-rule="nonzero" mask="url(#mask-2)"></path>
                    <path d="M44.3457708,77.90094 C44.7246635,75.2852877 45.3583298,73.8653978 46.2467699,73.6412702 C47.5794299,73.3050789 55.3680321,73.2646036 55.3750984,74.7712702 C55.3763954,75.0478156 55.6431413,78.0118519 56.5313889,78.0118519 C57.4196365,78.0118519 57.6479348,75.0476546 57.649231,74.7712702 C57.6562973,73.2646036 65.3997587,73.3227772 66.7775596,73.6412702 C67.6960935,73.853599 68.3278734,75.275148 68.6728992,77.9059174 C82.2322048,84.2910258 89.7256828,88.8463373 91.1533333,91.5718519 C92.9948148,95.0874074 94.3759259,103.248519 95.2966667,116.055185 L17.7033333,116.055185 C18.6240741,103.248519 20.0051852,95.0874074 21.8466667,91.5718519 C23.273674,88.847565 30.7733754,84.2905944 44.3457708,77.90094 Z" id="body" fill="#F4ECDD" mask="url(#mask-2)"></path>
                    <path d="M56.5,90.0233333 C55.667891,90.0233333 54.9933333,89.3487757 54.9933333,88.5166667 C54.9933333,87.6845576 55.667891,87.01 56.5,87.01 C57.332109,87.01 58.0066667,87.6845576 58.0066667,88.5166667 C58.0066667,89.3487757 57.332109,90.0233333 56.5,90.0233333 Z M56.5,97.5566667 C55.667891,97.5566667 54.9933333,96.882109 54.9933333,96.05 C54.9933333,95.217891 55.667891,94.5433333 56.5,94.5433333 C57.332109,94.5433333 58.0066667,95.217891 58.0066667,96.05 C58.0066667,96.882109 57.332109,97.5566667 56.5,97.5566667 Z M56.5,105.09 C55.667891,105.09 54.9933333,104.415442 54.9933333,103.583333 C54.9933333,102.751224 55.667891,102.076667 56.5,102.076667 C57.332109,102.076667 58.0066667,102.751224 58.0066667,103.583333 C58.0066667,104.415442 57.332109,105.09 56.5,105.09 Z" id="buttons" fill="#000000" mask="url(#mask-2)"></path>
                    <path d="M66.0651622,29.9178104 C72.0918289,44.9844771 68.7018289,52.3294771 63.9934956,61.1811437 C60.8546067,67.0822549 61.2312733,72.7950326 65.1234956,78.3194771 C60.6034956,75.4316993 58.3434956,70.7861437 58.3434956,64.3828104 C58.3434956,54.7778104 65.1234956,48.7511437 59.4734956,40.8411437 C53.8234956,32.9311437 60.0384956,14.8511437 66.0651622,29.9178104 Z" id="hair" fill="url(#linearGradient-4)" fill-rule="nonzero" mask="url(#mask-2)" transform="translate(63.277076, 51.213072) scale(-1, 1) translate(-63.277076, -51.213072) "></path>
                </g>
            </g>
        </g>
        <g id="Page"></g>
        <g id="Page"></g>
    </g>
</svg>