<?xml version="1.0" encoding="UTF-8"?>
<svg width="24px" height="50px" viewBox="0 0 24 50" version="1.1" xmlns="http://www.w3.org/2000/svg" xmlns:xlink="http://www.w3.org/1999/xlink">
    <!-- Generator: Sketch 52.4 (67378) - http://www.bohemiancoding.com/sketch -->
    <title>Group 6 Copy</title>
    <desc>Created with Sketch.</desc>
    <g id="Advice" stroke="none" stroke-width="1" fill="none" fill-rule="evenodd">
        <g id="Group-6-Copy" fill="#FFFFFF">
            <path d="M10.4512709,30.9210526 L10.4512709,45.26804 L1.77026096,48.1422958 C1.04266494,48.413789 1.23647717,49.496904 2.01243734,49.496904 L21.6351258,49.496904 C22.3371173,49.496904 22.5120817,48.5173851 21.854187,48.2719695 L12.8221813,45.26804 L12.8221813,30.9478447 C12.0451543,31.1575375 11.2247418,31.1478924 10.4512709,30.9210526" id="Fill-3"></path>
            <path d="M6.07722562,11.3391284 C8.48014169,11.3391284 10.5541104,12.7519648 11.5224603,14.7956656 C12.4904546,12.7519648 14.5644233,11.3391284 16.9673394,11.3391284 C19.5505542,11.3391284 21.7525457,12.9720171 22.6102982,15.2657776 C22.9420905,12.9041438 23.0576666,10.2388664 22.5427306,7.82436294 L21.069402,-1.59872116e-14 L2.18035506,-1.59872116e-14 L0.507168718,7.82436294 C-0.069289319,10.5278638 -0.145747356,13.2606573 0.234053498,15.9052155 C0.894437566,13.2810193 3.25965805,11.3391284 6.07722562,11.3391284" id="Fill-5" fill-opacity="0.5"></path>
            <path d="M17.3915363,10.5263158 C14.9886202,10.5263158 12.9146515,12.5264349 11.9463016,14.5697785 C10.9783073,12.5264349 8.90433855,10.5263158 6.50142248,10.5263158 C3.68385491,10.5263158 1.31863442,13.0554894 0.657894737,15.6793284 C0.67745377,15.8143606 0.70056899,15.9486783 0.722617354,16.0833532 C0.754623044,16.2826864 0.789118065,16.4816623 0.826813656,16.6799238 C0.833926031,16.7181472 0.841394026,16.7560133 0.84886202,16.7938795 C0.888691323,16.9989283 0.93029872,17.2032627 0.975817923,17.4068826 C0.980796586,17.4297452 0.986130868,17.4522505 0.991465149,17.4747559 C1.24644381,18.6053822 1.58570413,19.7138604 2.00675676,20.7909026 C2.01529161,20.813408 2.02347084,20.8359133 2.03236131,20.8580614 C2.10526316,21.0427483 2.18136558,21.2260062 2.25924609,21.4089069 C2.27880512,21.4557037 2.29800853,21.5025006 2.31827881,21.5489402 C2.39189189,21.7189807 2.46799431,21.8875923 2.5455192,22.0558466 C2.57147937,22.1122886 2.59743954,22.1690879 2.62411095,22.2251727 C2.70056899,22.3877114 2.77916074,22.5491784 2.85953058,22.7099309 C2.88975818,22.7703025 2.92034139,22.8310312 2.95128023,22.8914027 C3.03165007,23.0482258 3.11344239,23.2046916 3.19736842,23.3600857 C3.23079659,23.4218862 3.26493599,23.4833294 3.29907539,23.5451298 C3.38371266,23.6987378 3.46941679,23.8519886 3.55796586,24.0034532 C3.5928165,24.0638247 3.62908962,24.1231246 3.66465149,24.1827816 C3.7556899,24.3353179 3.84672831,24.4878543 3.94096728,24.6382472 C3.97119488,24.6868302 4.00320057,24.7343415 4.0341394,24.7825673 C4.33357041,25.2530364 4.65113798,25.7124315 4.98541963,26.1611098 C5.05761024,26.2579186 5.128734,26.355799 5.2027027,26.4515361 C5.27596017,26.5465587 5.35170697,26.6401524 5.42638691,26.7344606 C5.51173542,26.841629 5.59672831,26.9487973 5.68421053,27.0545368 C5.75604552,27.1417004 5.82930299,27.2274351 5.90256046,27.313527 C5.99751067,27.4249821 6.09246088,27.53608 6.18954481,27.645749 C6.25995733,27.7254108 6.3314367,27.8043582 6.40291607,27.8829483 C6.50746799,27.9979757 6.61344239,28.1122886 6.72048364,28.2255299 C6.78840683,28.2973327 6.85704125,28.3687783 6.92603129,28.4398666 C7.04196302,28.5591808 7.16002845,28.677066 7.27880512,28.7942367 C7.3428165,28.8571088 7.40647226,28.9203382 7.4715505,28.9828531 C7.60348506,29.109669 7.73790896,29.2346987 7.8730441,29.3586568 C7.92816501,29.409026 7.98221906,29.4601095 8.03769559,29.5101215 C8.19985775,29.6558704 8.36522048,29.7991188 8.53200569,29.9405811 C8.56330014,29.9673732 8.59388336,29.9945225 8.62517781,30.0209574 C8.82965861,30.1924268 9.03733997,30.3606811 9.24857752,30.5257204 L9.25142248,30.528221 C9.33357041,30.5921648 9.41749644,30.6521791 9.50284495,30.7096928 C9.55227596,30.7404144 9.63335704,30.7904263 9.68278805,30.8211479 C9.72866287,30.8490117 9.77418208,30.8775899 9.82076814,30.9033103 C9.89829303,30.9458204 9.97652916,30.9854727 10.0554765,31.0229817 C10.071835,31.0308407 10.0878378,31.0390569 10.1041963,31.0465587 C10.1938122,31.0879971 10.284495,31.1265778 10.3762447,31.1615861 C10.3826458,31.1640867 10.3886913,31.1665873 10.3950925,31.1690879 C10.5014225,31.2094546 10.609175,31.2430341 10.7172831,31.2748273 C11.4907539,31.5016671 12.3111664,31.510955 13.0881935,31.3012622 C13.2283073,31.2637533 13.3669986,31.2201715 13.5035562,31.1683734 C13.7041252,31.0922839 13.9004267,31.0011908 14.0906828,30.8954513 C14.0999289,30.8900929 14.109175,30.8843772 14.1184211,30.8790188 C14.2044808,30.8300786 14.2894737,30.778995 14.3730441,30.7239819 C14.4064723,30.7018338 14.4388336,30.6764706 14.4719061,30.6532508 C14.5312945,30.6114551 14.5910384,30.5710884 14.6486486,30.5257204 C14.7443101,30.4510598 14.836771,30.3738985 14.9313656,30.297809 C15.0334282,30.2149321 15.1369132,30.1334842 15.2375533,30.0495356 C15.3445946,29.9598714 15.4491465,29.8680638 15.5540541,29.7766135 C15.6429587,29.6998095 15.7322191,29.6233627 15.8197013,29.545487 C15.9278094,29.4486783 16.0334282,29.3500834 16.1390469,29.2518457 C16.2194168,29.177185 16.3001422,29.1028816 16.3794452,29.0271493 C16.4882646,28.923196 16.5949502,28.8178138 16.7012802,28.7117171 C16.7731152,28.6406287 16.8445946,28.5688259 16.9153627,28.4966659 C17.0256046,28.3841391 17.1340683,28.2705406 17.2418208,28.1562277 C17.3033428,28.0904977 17.3645092,28.0247678 17.4253201,27.9583234 C17.5380512,27.8350798 17.6504267,27.7111217 17.7603129,27.5857347 C17.8090327,27.5303644 17.85633,27.4746368 17.9043385,27.4192665 C18.0234708,27.2806621 18.1418919,27.1413432 18.2578236,27.0002382 C18.2848506,26.967016 18.311522,26.9334365 18.3385491,26.8998571 C19.5778805,25.36985 20.6059744,23.6944511 21.4103841,21.9208145 C21.4434566,21.8475828 21.4697724,21.7729221 21.4918208,21.6957609 C21.6294452,21.2160038 22.5561878,18.4439152 23.034495,15.0402477 C22.1767425,12.7464873 19.9747511,10.5263158 17.3915363,10.5263158" id="Fill-7"></path>
        </g>
    </g>
</svg>