<?xml version="1.0" encoding="utf-8"?>
<!-- Generator: Adobe Illustrator 18.1.1, SVG Export Plug-In . SVG Version: 6.00 Build 0)  -->
<svg version="1.1" id="Calque_1" xmlns="http://www.w3.org/2000/svg" xmlns:xlink="http://www.w3.org/1999/xlink" x="0px" y="0px"
	 viewBox="-609 670.3 198 77" enable-background="new -609 670.3 198 77" xml:space="preserve">
<title>Logo</title>
<desc>Created with Sketch.</desc>
<g id="Symbols">
	<g id="Logo-Negatif">
		<g id="Logo">
			<path id="Fill-4" fill="#FFFFFF" d="M-586.1,733.8c-0.4-0.3-0.8-0.5-1.3-0.7s-1-0.2-1.5-0.2c-0.6,0-1.1,0.1-1.6,0.2
				c-0.5,0.2-1,0.4-1.4,0.7c-0.4,0.3-0.7,0.7-0.9,1.2c-0.2,0.5-0.3,1-0.3,1.6c0,0.5,0.1,1,0.3,1.3c0.2,0.4,0.4,0.8,0.6,1.1
				c0.3,0.3,0.6,0.6,0.9,0.9c0.3,0.3,0.7,0.5,1,0.8c0.3,0.2,0.6,0.4,0.9,0.7c0.3,0.2,0.6,0.5,0.8,0.7c0.2,0.3,0.4,0.5,0.6,0.8
				c0.1,0.3,0.2,0.6,0.2,1c0,0.5-0.2,0.9-0.5,1.2c-0.4,0.3-0.8,0.5-1.3,0.5c-0.3,0-0.7-0.1-0.9-0.2c-0.3-0.1-0.6-0.3-0.8-0.5v1.7
				c0.3,0.2,0.6,0.3,0.8,0.4c0.3,0.1,0.6,0.1,0.9,0.1c0.5,0,0.9-0.1,1.3-0.2c0.4-0.1,0.7-0.3,1-0.6c0.3-0.3,0.5-0.6,0.7-1
				c0.2-0.4,0.3-0.8,0.3-1.3c0-0.5-0.1-1-0.3-1.4s-0.4-0.8-0.7-1.1c-0.3-0.3-0.6-0.6-1-0.9c-0.4-0.3-0.7-0.6-1.1-0.8
				c-0.3-0.2-0.6-0.4-0.9-0.6c-0.3-0.2-0.5-0.4-0.7-0.7c-0.2-0.2-0.4-0.5-0.5-0.8c-0.1-0.3-0.2-0.6-0.2-0.9c0-0.4,0.1-0.7,0.2-1
				c0.2-0.3,0.4-0.5,0.6-0.7c0.3-0.2,0.6-0.4,0.9-0.5c0.3-0.1,0.7-0.2,1-0.2c0.3,0,0.6,0,0.9,0.1c0.3,0.1,0.6,0.2,0.8,0.4
				c0.2,0.2,0.4,0.4,0.6,0.7c0.1,0.3,0.2,0.6,0.2,0.9c0,0.4-0.1,0.7-0.3,0.9c-0.2,0.2-0.5,0.5-0.8,0.6l0.9,1c0.5-0.3,0.9-0.6,1.2-1
				c0.3-0.4,0.5-0.9,0.5-1.5c0-0.5-0.1-1-0.3-1.5C-585.5,734.5-585.8,734.1-586.1,733.8"/>
			<path id="Fill-6" fill="#FFFFFF" d="M-578.1,744.4c-0.1,0.3-0.3,0.5-0.5,0.7c-0.2,0.2-0.5,0.4-0.7,0.5c-0.3,0.1-0.6,0.2-0.9,0.2
				c-0.3,0-0.6-0.1-0.9-0.2c-0.3-0.1-0.5-0.3-0.8-0.5c-0.2-0.2-0.4-0.5-0.5-0.7c-0.1-0.3-0.2-0.6-0.2-0.9c0-0.3,0.1-0.6,0.2-0.9
				c0.1-0.3,0.3-0.5,0.5-0.8c0.2-0.2,0.5-0.4,0.8-0.5c0.3-0.1,0.6-0.2,0.9-0.2c0.2,0,0.4,0,0.6,0.1c-0.2,0.2-0.3,0.5-0.3,0.7
				c0,0.3,0.1,0.6,0.3,0.8c0.2,0.2,0.5,0.3,0.8,0.3c0.3,0,0.5-0.1,0.7-0.3c0.1,0.2,0.1,0.5,0.1,0.7
				C-577.9,743.8-578,744.1-578.1,744.4 M-577.8,740.9c-0.3-0.3-0.7-0.6-1.1-0.8c-0.4-0.2-0.9-0.3-1.4-0.3c-0.5,0-1,0.1-1.4,0.3
				c-0.4,0.2-0.8,0.4-1.1,0.8c-0.3,0.3-0.6,0.7-0.8,1.2c-0.2,0.4-0.3,0.9-0.3,1.4c0,0.5,0.1,1,0.3,1.4c0.2,0.4,0.4,0.8,0.8,1.1
				c0.3,0.3,0.7,0.6,1.1,0.8c0.4,0.2,0.9,0.3,1.4,0.3c0.5,0,0.9-0.1,1.4-0.3c0.4-0.2,0.8-0.4,1.1-0.8c0.3-0.3,0.6-0.7,0.8-1.1
				c0.2-0.4,0.3-0.9,0.3-1.4c0-0.5-0.1-1-0.3-1.4C-577.2,741.6-577.4,741.3-577.8,740.9"/>
			<path id="Fill-8" fill="#FFFFFF" d="M-563.1,745.5c-0.2-0.2-0.2-0.4-0.2-0.7v-2.2c0-0.8-0.2-1.5-0.7-2c-0.5-0.5-1.1-0.7-1.9-0.7
				c-0.5,0-0.9,0.1-1.3,0.4c-0.4,0.3-0.7,0.6-0.9,1c-0.2-0.5-0.5-0.8-0.9-1.1c-0.4-0.2-0.9-0.4-1.4-0.4c-0.4,0-0.8,0.1-1.1,0.3
				c-0.3,0.2-0.6,0.5-0.8,0.9v-1h-1.4v6.9h1.4v-3.8c0-0.3,0-0.5,0.1-0.8c0.1-0.2,0.2-0.5,0.4-0.7c0.2-0.2,0.3-0.3,0.5-0.4
				c0.2-0.1,0.4-0.2,0.7-0.2c0.5,0,0.9,0.2,1.1,0.5c0.3,0.3,0.4,0.7,0.4,1.2v4.2h1.4v-3.8c0-0.3,0-0.5,0.1-0.8
				c0.1-0.2,0.2-0.5,0.4-0.7c0.2-0.2,0.3-0.3,0.5-0.4c0.2-0.1,0.4-0.2,0.7-0.2c0.5,0,0.9,0.2,1.1,0.5c0.3,0.3,0.4,0.7,0.4,1.2v2.3
				c0,0.3,0,0.5,0.1,0.8c0.1,0.3,0.2,0.5,0.4,0.7c0.2,0.2,0.4,0.3,0.6,0.5c0.2,0.1,0.5,0.2,0.8,0.2c0.3,0,0.5,0,0.8-0.1
				c0.2-0.1,0.5-0.2,0.7-0.3v-1.3c-0.3,0.3-0.6,0.4-1,0.4C-562.7,745.8-563,745.7-563.1,745.5"/>
			<path id="Fill-10" fill="#FFFFFF" d="M-548.9,745.5c-0.2-0.2-0.2-0.4-0.2-0.7v-2.2c0-0.8-0.2-1.5-0.7-2c-0.5-0.5-1.1-0.7-1.9-0.7
				c-0.5,0-0.9,0.1-1.3,0.4c-0.4,0.3-0.7,0.6-0.9,1c-0.2-0.5-0.5-0.8-0.9-1.1c-0.4-0.2-0.9-0.4-1.4-0.4c-0.4,0-0.8,0.1-1.1,0.3
				c-0.3,0.2-0.6,0.5-0.8,0.9v-1h-1.4v6.9h1.4v-3.8c0-0.3,0-0.5,0.1-0.8c0.1-0.2,0.2-0.5,0.4-0.7c0.2-0.2,0.3-0.3,0.5-0.4
				c0.2-0.1,0.4-0.2,0.7-0.2c0.5,0,0.9,0.2,1.1,0.5c0.3,0.3,0.4,0.7,0.4,1.2v4.2h1.4v-3.8c0-0.3,0-0.5,0.1-0.8
				c0.1-0.2,0.2-0.5,0.4-0.7c0.2-0.2,0.3-0.3,0.5-0.4c0.2-0.1,0.4-0.2,0.7-0.2c0.5,0,0.9,0.2,1.1,0.5c0.3,0.3,0.4,0.7,0.4,1.2v2.3
				c0,0.3,0,0.5,0.1,0.8c0.1,0.3,0.2,0.5,0.4,0.7c0.2,0.2,0.4,0.3,0.6,0.5c0.2,0.1,0.5,0.2,0.8,0.2c0.3,0,0.5,0,0.8-0.1
				c0.2-0.1,0.5-0.2,0.7-0.3v-1.3c-0.3,0.3-0.6,0.4-1,0.4C-548.5,745.8-548.8,745.7-548.9,745.5"/>
			<path id="Fill-12" fill="#FFFFFF" d="M-544.6,744.7c-0.2-0.4-0.4-0.8-0.4-1.2c0-0.3,0.1-0.6,0.2-0.9c0.1-0.3,0.3-0.5,0.4-0.7
				c0.2-0.2,0.4-0.4,0.7-0.5c0.3-0.1,0.6-0.2,0.9-0.2c0.5,0,0.9,0.1,1.3,0.4L-544.6,744.7z M-541,740.3c-0.5-0.3-1.1-0.4-1.7-0.4
				c-0.5,0-0.9,0.1-1.4,0.3c-0.4,0.2-0.8,0.5-1.1,0.8c-0.3,0.3-0.6,0.7-0.8,1.1c-0.2,0.4-0.3,0.9-0.3,1.4c0,0.5,0.1,1,0.3,1.5
				c0.2,0.4,0.5,0.8,0.8,1.2c0.3,0.3,0.7,0.6,1.2,0.7c0.5,0.2,0.9,0.3,1.5,0.3c0.3,0,0.7,0,1.1-0.1c0.4-0.1,0.7-0.2,1-0.3v-1.4
				c-0.3,0.2-0.6,0.4-1,0.5c-0.4,0.1-0.7,0.1-1.1,0.1c-0.5,0-1-0.1-1.4-0.4l4.1-4C-540.1,740.9-540.5,740.5-541,740.3z"/>
			<path id="Fill-14" fill="#FFFFFF" d="M-535.8,745.5c-0.2-0.2-0.2-0.4-0.2-0.7v-11.7h-1.4V745c0,0.3,0,0.5,0.1,0.8
				c0.1,0.3,0.2,0.5,0.4,0.7c0.2,0.2,0.4,0.3,0.6,0.5s0.5,0.2,0.8,0.2c0.2,0,0.5,0,0.7-0.1c0.2-0.1,0.5-0.2,0.7-0.3v-1.3
				c-0.3,0.3-0.6,0.4-1,0.4C-535.4,745.8-535.6,745.7-535.8,745.5"/>
			<path id="Fill-16" fill="#FFFFFF" d="M-530.9,737c0.2-0.2,0.3-0.5,0.3-0.8c0-0.3-0.1-0.5-0.3-0.8c-0.2-0.2-0.5-0.3-0.8-0.3
				c-0.3,0-0.5,0.1-0.8,0.3c-0.2,0.2-0.3,0.5-0.3,0.8c0,0.3,0.1,0.6,0.3,0.8c0.2,0.2,0.5,0.3,0.8,0.3
				C-531.4,737.3-531.1,737.2-530.9,737"/>
			<path id="Fill-18" fill="#FFFFFF" d="M-530.7,745.5c-0.2-0.2-0.2-0.4-0.2-0.7V740h-1.4v4.9c0,0.3,0,0.5,0.1,0.8
				c0.1,0.3,0.2,0.5,0.4,0.7c0.2,0.2,0.4,0.3,0.6,0.5c0.2,0.1,0.5,0.2,0.8,0.2c0.3,0,0.5,0,0.8-0.1c0.2-0.1,0.5-0.2,0.7-0.3v-1.3
				c-0.3,0.3-0.6,0.4-1,0.4C-530.4,745.8-530.6,745.7-530.7,745.5"/>
			<path id="Fill-20" fill="#FFFFFF" d="M-526.3,744.7c-0.2-0.4-0.4-0.8-0.4-1.2c0-0.3,0.1-0.6,0.2-0.9c0.1-0.3,0.3-0.5,0.4-0.7
				c0.2-0.2,0.4-0.4,0.7-0.5c0.3-0.1,0.6-0.2,0.9-0.2c0.5,0,0.9,0.1,1.3,0.4L-526.3,744.7z M-522.8,740.3c-0.5-0.3-1.1-0.4-1.7-0.4
				c-0.5,0-0.9,0.1-1.4,0.3c-0.4,0.2-0.8,0.5-1.1,0.8c-0.3,0.3-0.6,0.7-0.8,1.1c-0.2,0.4-0.3,0.9-0.3,1.4c0,0.5,0.1,1,0.3,1.5
				c0.2,0.4,0.5,0.8,0.8,1.2c0.3,0.3,0.7,0.6,1.2,0.7c0.5,0.2,0.9,0.3,1.5,0.3c0.3,0,0.7,0,1.1-0.1c0.4-0.1,0.7-0.2,1-0.3v-1.4
				c-0.3,0.2-0.6,0.4-1,0.5c-0.4,0.1-0.7,0.1-1.1,0.1c-0.5,0-1-0.1-1.4-0.4l4.1-4C-521.9,740.9-522.3,740.5-522.8,740.3z"/>
			<path id="Fill-22" fill="#FFFFFF" d="M-515.8,739.9c-0.4,0-0.8,0.1-1.2,0.4c-0.3,0.3-0.6,0.6-0.8,1V740h-1.4v6.9h1.4v-3.8
				c0,0,0-0.1,0-0.2c0-0.1,0-0.1,0-0.2c0.1-0.3,0.2-0.5,0.4-0.7c0.2-0.2,0.4-0.4,0.6-0.5c0.1,0.2,0.2,0.4,0.4,0.5
				c0.2,0.1,0.4,0.2,0.6,0.2c0.3,0,0.6-0.1,0.8-0.3s0.3-0.5,0.3-0.8c0-0.3-0.1-0.6-0.3-0.8C-515.2,740-515.5,739.9-515.8,739.9"/>
			<path id="Fill-24" fill="#FFFFFF" d="M-502.3,744.1c0,0,0,0.1-0.1,0.2c0,0.1-0.1,0.2-0.1,0.2c-0.2,0.4-0.5,0.7-0.8,1
				c-0.4,0.2-0.8,0.4-1.2,0.4c-0.3,0-0.6-0.1-0.9-0.2c-0.3-0.1-0.5-0.3-0.7-0.5c-0.2-0.2-0.4-0.5-0.5-0.8c-0.1-0.3-0.2-0.6-0.2-0.9
				c0-0.3,0.1-0.6,0.2-0.9c0.1-0.3,0.3-0.5,0.5-0.8c0.2-0.2,0.5-0.4,0.7-0.5c0.3-0.1,0.6-0.2,0.9-0.2c0.5,0,0.9,0.1,1.2,0.4
				c0.4,0.2,0.7,0.6,0.8,1c0,0,0.1,0.1,0.1,0.2c0,0.1,0.1,0.2,0.1,0.2V744.1z M-500.7,745.5c-0.2-0.2-0.2-0.4-0.2-0.7V740h-1.4v1.1
				c-0.3-0.4-0.7-0.8-1.1-1c-0.4-0.2-0.9-0.3-1.4-0.3c-0.5,0-1,0.1-1.4,0.3c-0.4,0.2-0.8,0.5-1.1,0.8c-0.3,0.3-0.5,0.7-0.7,1.1
				c-0.2,0.4-0.3,0.9-0.3,1.4c0,0.5,0.1,1,0.3,1.4c0.2,0.4,0.4,0.8,0.7,1.1c0.3,0.3,0.7,0.6,1.1,0.8c0.4,0.2,0.9,0.3,1.4,0.3
				c0.5,0,1-0.1,1.5-0.4c0.4-0.2,0.8-0.6,1.1-1.1c0.1,0.4,0.3,0.8,0.6,1c0.3,0.3,0.7,0.4,1.2,0.4c0.2,0,0.5,0,0.7-0.1
				c0.2-0.1,0.5-0.2,0.7-0.3v-1.3c-0.3,0.3-0.6,0.4-1,0.4C-500.3,745.8-500.5,745.7-500.7,745.5z"/>
			<polygon id="Fill-26" fill="#FFFFFF" points="-503.9,739.3 -503.1,738.5 -505.2,736.3 -506,737.1 			"/>
			<path id="Fill-28" fill="#FFFFFF" d="M-486.9,744c0,0,0,0.1-0.1,0.2c0,0.1-0.1,0.2-0.1,0.2c-0.2,0.4-0.5,0.8-0.8,1
				c-0.4,0.3-0.8,0.4-1.3,0.4c-0.3,0-0.6-0.1-0.9-0.2c-0.3-0.1-0.5-0.3-0.7-0.5c-0.2-0.2-0.4-0.5-0.5-0.8c-0.1-0.3-0.2-0.6-0.2-0.9
				c0-0.3,0.1-0.6,0.2-0.9c0.1-0.3,0.3-0.5,0.5-0.8c0.2-0.2,0.5-0.4,0.7-0.5c0.3-0.1,0.6-0.2,0.9-0.2c0.5,0,0.9,0.1,1.3,0.4
				c0.4,0.3,0.7,0.6,0.8,1c0,0,0,0.1,0.1,0.2c0,0.1,0.1,0.2,0.1,0.2V744z M-485.3,745.5c-0.2-0.2-0.2-0.4-0.2-0.7v-11.7h-1.4v8.1
				c-0.3-0.4-0.7-0.8-1.1-1c-0.4-0.2-0.9-0.3-1.4-0.3c-0.5,0-1,0.1-1.4,0.3s-0.8,0.5-1.1,0.8s-0.5,0.7-0.7,1.1
				c-0.2,0.4-0.3,0.9-0.3,1.4c0,0.5,0.1,1,0.3,1.4c0.2,0.4,0.4,0.8,0.7,1.1s0.7,0.6,1.1,0.8c0.4,0.2,0.9,0.3,1.4,0.3
				c0.6,0,1.1-0.1,1.5-0.4c0.4-0.3,0.8-0.6,1.1-1.1c0.1,0.4,0.3,0.8,0.7,1c0.3,0.3,0.7,0.4,1.2,0.4c0.2,0,0.5,0,0.7-0.1
				c0.2-0.1,0.5-0.2,0.7-0.3v-1.3c-0.3,0.3-0.6,0.4-1,0.4C-484.9,745.8-485.1,745.7-485.3,745.5z"/>
			<path id="Fill-30" fill="#FFFFFF" d="M-476.8,744.4c-0.1,0.3-0.3,0.5-0.5,0.7c-0.2,0.2-0.5,0.4-0.7,0.5c-0.3,0.1-0.6,0.2-0.9,0.2
				c-0.3,0-0.6-0.1-0.9-0.2c-0.3-0.1-0.5-0.3-0.8-0.5c-0.2-0.2-0.4-0.5-0.5-0.7c-0.1-0.3-0.2-0.6-0.2-0.9c0-0.3,0.1-0.6,0.2-0.9
				c0.1-0.3,0.3-0.5,0.5-0.8c0.2-0.2,0.5-0.4,0.8-0.5c0.3-0.1,0.6-0.2,0.9-0.2c0.2,0,0.4,0,0.6,0.1c-0.2,0.2-0.3,0.5-0.3,0.7
				c0,0.3,0.1,0.6,0.3,0.8c0.2,0.2,0.5,0.3,0.8,0.3c0.3,0,0.5-0.1,0.7-0.3c0.1,0.2,0.1,0.5,0.1,0.7
				C-476.6,743.8-476.7,744.1-476.8,744.4 M-476.4,740.9c-0.3-0.3-0.7-0.6-1.1-0.8c-0.4-0.2-0.9-0.3-1.4-0.3c-0.5,0-1,0.1-1.4,0.3
				c-0.4,0.2-0.8,0.4-1.1,0.8c-0.3,0.3-0.6,0.7-0.8,1.2c-0.2,0.4-0.3,0.9-0.3,1.4c0,0.5,0.1,1,0.3,1.4c0.2,0.4,0.4,0.8,0.8,1.1
				c0.3,0.3,0.7,0.6,1.1,0.8c0.4,0.2,0.9,0.3,1.4,0.3c0.5,0,0.9-0.1,1.4-0.3c0.4-0.2,0.8-0.4,1.1-0.8c0.3-0.3,0.6-0.7,0.8-1.1
				c0.2-0.4,0.3-0.9,0.3-1.4c0-0.5-0.1-1-0.3-1.4C-475.9,741.6-476.1,741.3-476.4,740.9"/>
			<path id="Fill-32" fill="#FFFFFF" d="M-461.8,745.5c-0.2-0.2-0.2-0.4-0.2-0.7v-2.2c0-0.8-0.2-1.5-0.7-2c-0.5-0.5-1.1-0.7-1.9-0.7
				c-0.5,0-0.9,0.1-1.3,0.4c-0.4,0.3-0.7,0.6-0.9,1c-0.2-0.5-0.5-0.8-0.9-1.1c-0.4-0.2-0.9-0.4-1.4-0.4c-0.4,0-0.8,0.1-1.1,0.3
				c-0.3,0.2-0.6,0.5-0.8,0.9v-1h-1.4v6.9h1.4v-3.8c0-0.3,0-0.5,0.1-0.8c0.1-0.2,0.2-0.5,0.4-0.7c0.2-0.2,0.3-0.3,0.5-0.4
				c0.2-0.1,0.4-0.2,0.7-0.2c0.5,0,0.9,0.2,1.1,0.5c0.3,0.3,0.4,0.7,0.4,1.2v4.2h1.4v-3.8c0-0.3,0-0.5,0.1-0.8
				c0.1-0.2,0.2-0.5,0.4-0.7c0.2-0.2,0.3-0.3,0.5-0.4c0.2-0.1,0.4-0.2,0.7-0.2c0.5,0,0.9,0.2,1.1,0.5c0.3,0.3,0.4,0.7,0.4,1.2v2.3
				c0,0.3,0,0.5,0.1,0.8c0.1,0.3,0.2,0.5,0.4,0.7c0.2,0.2,0.4,0.3,0.6,0.5c0.2,0.1,0.5,0.2,0.8,0.2c0.3,0,0.5,0,0.8-0.1
				c0.2-0.1,0.5-0.2,0.7-0.3v-1.3c-0.3,0.3-0.6,0.4-1,0.4C-461.4,745.8-461.7,745.7-461.8,745.5"/>
			<path id="Fill-34" fill="#FFFFFF" d="M-457,737c0.2-0.2,0.3-0.5,0.3-0.8c0-0.3-0.1-0.5-0.3-0.8c-0.2-0.2-0.5-0.3-0.8-0.3
				s-0.5,0.1-0.8,0.3c-0.2,0.2-0.3,0.5-0.3,0.8c0,0.3,0.1,0.6,0.3,0.8c0.2,0.2,0.5,0.3,0.8,0.3S-457.2,737.2-457,737"/>
			<path id="Fill-36" fill="#FFFFFF" d="M-456.8,745.5c-0.2-0.2-0.2-0.4-0.2-0.7V740h-1.4v4.9c0,0.3,0,0.5,0.1,0.8
				c0.1,0.3,0.2,0.5,0.4,0.7c0.2,0.2,0.4,0.3,0.6,0.5c0.2,0.1,0.5,0.2,0.8,0.2c0.3,0,0.5,0,0.8-0.1s0.5-0.2,0.7-0.3v-1.3
				c-0.3,0.3-0.6,0.4-1,0.4C-456.4,745.8-456.6,745.7-456.8,745.5"/>
			<path id="Fill-38" fill="#FFFFFF" d="M-449.9,742.5c0.2,0.2,0.5,0.3,0.7,0.3c0.3,0,0.6-0.1,0.8-0.3c0.2-0.2,0.3-0.5,0.3-0.8
				s-0.1-0.6-0.3-0.8c-0.2-0.2-0.4-0.4-0.6-0.5c-0.3-0.1-0.5-0.2-0.8-0.3c-0.3-0.1-0.6-0.1-0.9-0.1c-0.5,0-0.9,0.1-1.4,0.3
				s-0.8,0.5-1.1,0.8s-0.6,0.7-0.7,1.1c-0.2,0.4-0.3,0.9-0.3,1.4c0,0.5,0.1,1,0.3,1.5c0.2,0.4,0.5,0.8,0.8,1.2
				c0.3,0.3,0.8,0.6,1.2,0.7c0.5,0.2,1,0.3,1.5,0.3c0.3,0,0.7,0,1.1-0.1c0.4-0.1,0.7-0.2,1-0.3v-1.5c-0.3,0.2-0.6,0.4-1,0.5
				c-0.4,0.1-0.7,0.1-1.1,0.1c-0.3,0-0.7-0.1-1-0.2c-0.3-0.1-0.6-0.3-0.8-0.5c-0.2-0.2-0.4-0.5-0.6-0.7c-0.1-0.3-0.2-0.6-0.2-0.9
				c0-0.3,0-0.6,0.1-0.9c0.1-0.3,0.2-0.5,0.4-0.7c0.2-0.2,0.4-0.4,0.7-0.5s0.5-0.2,0.9-0.2c0.2,0,0.4,0,0.6,0.1
				c-0.1,0.1-0.2,0.3-0.2,0.4C-450.2,742-450.1,742.3-449.9,742.5"/>
			<path id="Fill-40" fill="#FFFFFF" d="M-443.8,737c0.2-0.2,0.3-0.5,0.3-0.8c0-0.3-0.1-0.5-0.3-0.8c-0.2-0.2-0.5-0.3-0.8-0.3
				s-0.5,0.1-0.8,0.3c-0.2,0.2-0.3,0.5-0.3,0.8c0,0.3,0.1,0.6,0.3,0.8c0.2,0.2,0.5,0.3,0.8,0.3S-444,737.2-443.8,737"/>
			<path id="Fill-42" fill="#FFFFFF" d="M-443.6,745.5c-0.2-0.2-0.2-0.4-0.2-0.7V740h-1.4v4.9c0,0.3,0,0.5,0.1,0.8
				c0.1,0.3,0.2,0.5,0.4,0.7c0.2,0.2,0.4,0.3,0.6,0.5c0.2,0.1,0.5,0.2,0.8,0.2c0.3,0,0.5,0,0.8-0.1c0.2-0.1,0.5-0.2,0.7-0.3v-1.3
				c-0.3,0.3-0.6,0.4-1,0.4C-443.2,745.8-443.4,745.7-443.6,745.5"/>
			<path id="Fill-44" fill="#FFFFFF" d="M-438.5,745.5c-0.2-0.2-0.2-0.4-0.2-0.7v-11.7h-1.4V745c0,0.3,0,0.5,0.1,0.8
				c0.1,0.3,0.2,0.5,0.4,0.7c0.2,0.2,0.4,0.3,0.6,0.5c0.2,0.1,0.5,0.2,0.8,0.2c0.2,0,0.5,0,0.7-0.1c0.2-0.1,0.5-0.2,0.7-0.3v-1.3
				c-0.3,0.3-0.6,0.4-1,0.4C-438.2,745.8-438.4,745.7-438.5,745.5"/>
			<path id="Fill-46" fill="#FFFFFF" d="M-434.1,744.7c-0.2-0.4-0.4-0.8-0.4-1.2c0-0.3,0.1-0.6,0.2-0.9c0.1-0.3,0.3-0.5,0.4-0.7
				c0.2-0.2,0.4-0.4,0.7-0.5c0.3-0.1,0.6-0.2,0.9-0.2c0.5,0,0.9,0.1,1.3,0.4L-434.1,744.7z M-430.6,740.3c-0.5-0.3-1.1-0.4-1.7-0.4
				c-0.5,0-0.9,0.1-1.4,0.3c-0.4,0.2-0.8,0.5-1.1,0.8c-0.3,0.3-0.6,0.7-0.8,1.1c-0.2,0.4-0.3,0.9-0.3,1.4c0,0.5,0.1,1,0.3,1.5
				c0.2,0.4,0.5,0.8,0.8,1.2c0.3,0.3,0.7,0.6,1.2,0.7c0.5,0.2,0.9,0.3,1.5,0.3c0.3,0,0.7,0,1.1-0.1c0.4-0.1,0.7-0.2,1-0.3v-1.4
				c-0.3,0.2-0.6,0.4-1,0.5c-0.4,0.1-0.7,0.1-1.1,0.1c-0.5,0-1-0.1-1.4-0.4l4.1-4C-429.7,740.9-430.1,740.5-430.6,740.3z"/>
			<path id="Fill-48" fill="#FFFFFF" d="M-568.4,695.2c-0.9,0.3-2,0.5-3,0.6c-0.4,0-0.8,0-1.2,0c-1,0-1.9-0.1-2.9-0.3l-0.1,0
				c-0.1,0-0.3-0.1-0.4-0.1l0,0c-0.7-0.2-1.4-0.5-2-0.8c0.1,0.8,0.1,1.6,0.1,2.5c0,8.7-3.8,14-10.2,14c-6.4,0-10.3-5.3-10.3-14
				c0-8.7,3.8-14,10.3-14c1.3,0,2.4,0.2,3.5,0.6c0-1.1,0.2-2.3,0.5-3.4c0.4-1.5,1.2-2.9,2.1-4.1c-1.9-0.5-3.9-0.8-6.1-0.8
				c-12.3,0-20.3,8.3-20.3,21.7c0,13.3,7.9,21.7,20.3,21.7c12.3,0,20.3-8.3,20.3-21.7c0-0.7,0-1.5-0.1-2.2c0,0,0,0-0.1,0
				C-568.2,695.1-568.3,695.2-568.4,695.2"/>
			<path id="Fill-50" fill="#FFFFFF" d="M-529.7,717.9l13.8-41.4h-10.4l-7.6,26.7c-0.8,2.4-1.1,4.1-1.3,5.7h-0.2
				c-0.2-1.6-0.6-3.3-1.3-5.7l-7.6-26.7h-10.4l13.8,41.4H-529.7z"/>
			<polygon id="Fill-52" fill="#FFFFFF" points="-511.4,717.9 -501.7,717.9 -501.7,676.5 -511.4,676.5 			"/>
			<path id="Fill-54" fill="#FFFFFF" d="M-484.1,694.5c0-2-0.1-3.8-0.1-5.5h0.1c0.5,1.5,1.4,3.2,2.4,5.1l13.7,23.8h10.4v-41.4h-9
				v23.7c0,2,0.1,3.7,0.1,5.3h-0.1c-0.5-1.5-1.6-3.6-2.5-5.4l-13.2-23.6h-10.8v41.4h9V694.5z"/>
			<path id="Fill-55" fill="#FFFFFF" d="M-431.3,711.2c-6.4,0-10.3-5.3-10.3-14c0-8.7,3.8-14,10.3-14s10.2,5.2,10.2,14
				C-421.1,705.9-424.8,711.2-431.3,711.2 M-431.3,675.5c-12.3,0-20.3,8.3-20.3,21.7c0,13.3,7.9,21.7,20.3,21.7
				c12.3,0,20.3-8.3,20.3-21.7C-411,683.9-418.9,675.5-431.3,675.5"/>
			<path id="Fill-56" fill="#FFFFFF" d="M-563.3,670.7c-4.5,4-10.8,5.8-11.7,6c-0.9,0.3-1.8,0.8-2.5,1.4c-1.1,0.9-1.9,2.2-2.3,3.6
				c-0.8,2.6-0.1,5.5,1.9,7.4c0.9,0.9,2,1.5,3.2,1.9l0.1,0c0.9,0.2,1.8,0.2,2.8,0.1c0.7,0,1.3-0.2,1.9-0.4c0,0,0.1,0,0.1-0.1l0.1,0
				c0.4-0.1,0.7-0.3,1-0.5c0.1-0.1,0.2-0.1,0.3-0.2c1.1-0.8,2.1-2.1,2.8-3.7c0-0.1,0.1-0.2,0.2-0.4
				C-563.5,681.5-563.2,675.3-563.3,670.7"/>
		</g>
	</g>
</g>
</svg>
