<?xml version="1.0" encoding="UTF-8"?>
<svg width="198px" height="77px" viewBox="0 0 198 77" version="1.1" xmlns="http://www.w3.org/2000/svg" xmlns:xlink="http://www.w3.org/1999/xlink">
    <!-- Generator: Sketch 52.4 (67378) - http://www.bohemiancoding.com/sketch -->
    <title>Logo</title>
    <desc>Created with Sketch.</desc>
    <g id="Symbols" stroke="none" stroke-width="1" fill="none" fill-rule="evenodd">
        <g id="Logo-Negatif">
            <g id="Logo">
                <path d="M22.8703337,63.5027798 C22.50348,63.1984251 22.0814226,62.9687711 21.6051652,62.8133129 C21.1289078,62.6578548 20.6396022,62.5801257 20.1372485,62.5801257 C19.5706578,62.5801257 19.0301633,62.6608832 18.5152633,62.8229029 C18.0003633,62.9849226 17.5461874,63.2241666 17.1537393,63.5416444 C16.7607893,63.8591222 16.4486374,64.2538243 16.2167819,64.7262555 C15.9849263,65.1991915 15.8695004,65.7397618 15.8695004,66.3484713 C15.8695004,66.8532055 15.9528078,67.3034284 16.1204263,67.6981305 C16.287543,68.0938421 16.5033393,68.4527081 16.7673133,68.7762428 C17.0312874,69.1002821 17.3339041,69.3915138 17.6751633,69.6504424 C18.0159207,69.9098758 18.360693,70.1617381 18.7084763,70.4080484 C19.0301633,70.6281125 19.3423152,70.8517098 19.6449319,71.0783355 C19.9475485,71.3044564 20.2145337,71.5442051 20.4463893,71.7965722 C20.6782448,72.0494441 20.8649337,72.3245242 21.0064559,72.6223174 C21.1479781,72.9206153 21.2192411,73.2567683 21.2192411,73.6322905 C21.2192411,74.1501478 21.0385744,74.5645346 20.6782448,74.8754508 C20.3179152,75.1863671 19.8928467,75.3418252 19.4035411,75.3418252 C19.0557578,75.3418252 18.740093,75.2772193 18.4575504,75.1475026 C18.1740041,75.0177859 17.9035059,74.8365863 17.6460559,74.6039038 L17.6460559,76.2932492 C17.9291004,76.4749535 18.2126467,76.5976039 18.4956911,76.6627146 C18.7787356,76.7273206 19.0818541,76.7596236 19.4035411,76.7596236 C19.8672522,76.7596236 20.298343,76.6884561 20.697817,76.546121 C21.0962874,76.4032813 21.4440707,76.1963402 21.7406652,75.9242885 C22.0367578,75.6522368 22.2681115,75.3221406 22.43573,74.934 C22.6028467,74.5453547 22.6866559,74.111788 22.6866559,73.6322905 C22.6866559,73.1013101 22.5933115,72.6288789 22.4066226,72.2144921 C22.2199337,71.8001054 21.9820559,71.4245831 21.6924874,71.0874207 C21.402417,70.7512677 21.0742059,70.4403514 20.7073522,70.1556813 C20.3404985,69.8705065 19.9761541,69.5989595 19.6163263,69.3395261 C19.3197319,69.1325851 19.0366874,68.9190825 18.7661893,68.6985137 C18.4956911,68.4784496 18.2543004,68.2518239 18.042017,68.0186367 C17.8297337,67.7854495 17.6621152,67.5330824 17.5401652,67.2610307 C17.4172115,66.9894837 17.3564874,66.685129 17.3564874,66.3484713 C17.3564874,65.9598259 17.4337726,65.6171114 17.588343,65.3188135 C17.7429133,65.0210203 17.9486726,64.7716816 18.2061226,64.5713022 C18.4635726,64.3704179 18.7596652,64.2184929 19.0949022,64.1145177 C19.4291356,64.0110472 19.7769189,63.9590596 20.1372485,63.9590596 C20.4463893,63.9590596 20.7490059,64.0044856 21.0450985,64.0948331 C21.3411911,64.18619 21.6051652,64.3219635 21.8370207,64.503163 C22.0688763,64.6843626 22.2520522,64.9044267 22.3875522,65.1633554 C22.5225504,65.4227887 22.5903004,65.7266387 22.5903004,66.0764195 C22.5903004,66.4519418 22.4869189,66.762858 22.2811596,67.0086636 C22.0754004,67.2549739 21.8109244,67.4684765 21.4892374,67.649676 L22.43573,68.6207846 C22.9250356,68.3623607 23.3240078,68.0156083 23.6331485,67.5820417 C23.9422893,67.1479702 24.0968596,66.6462644 24.0968596,66.0764195 C24.0968596,65.5323161 23.983943,65.0437334 23.7586115,64.6096619 C23.53328,64.1760953 23.2371874,63.8071346 22.8703337,63.5027798" id="Fill-4" fill="#FFFFFF"></path>
                <path d="M30.90448,74.0984125 C30.7820281,74.3835874 30.6149115,74.6293929 30.4026281,74.8368387 C30.189843,75.0437797 29.9419281,75.2093325 29.6588837,75.3319829 C29.3753374,75.4551381 29.0727207,75.5167156 28.7510337,75.5167156 C28.4288448,75.5167156 28.123217,75.4551381 27.8336485,75.3319829 C27.54408,75.2093325 27.2926522,75.0437797 27.0803689,74.8368387 C26.8680856,74.6293929 26.700467,74.3835874 26.578517,74.0984125 C26.4560652,73.8137425 26.3948393,73.5093877 26.3948393,73.1858531 C26.3948393,72.8618137 26.4560652,72.5544306 26.578517,72.263199 C26.700467,71.9714626 26.8680856,71.7190955 27.0803689,71.505593 C27.2926522,71.2915857 27.54408,71.1204808 27.8336485,70.9907641 C28.123217,70.8615521 28.4288448,70.7964414 28.7510337,70.7964414 C28.9442467,70.7964414 29.15653,70.8287444 29.3883856,70.8933504 C29.2082207,71.1139192 29.1178874,71.3531632 29.1178874,71.6125966 C29.1178874,71.9230081 29.2308041,72.1884983 29.4561356,72.4085624 C29.6809652,72.6291313 29.9484522,72.7386586 30.257593,72.7386586 C30.5275893,72.7386586 30.7659689,72.6483112 30.97223,72.4671116 C31.0495152,72.6997941 31.0881578,72.9395428 31.0881578,73.1858531 C31.0881578,73.5093877 31.0269319,73.8137425 30.90448,74.0984125 M31.2422263,70.6117087 C30.9205393,70.2821173 30.5436485,70.0226839 30.1125578,69.8349228 C29.6809652,69.6476664 29.220767,69.5532811 28.7319633,69.5532811 C28.2421559,69.5532811 27.7789467,69.6476664 27.3413319,69.8349228 C26.9032152,70.0226839 26.5233133,70.2821173 26.2016263,70.6117087 C25.8794374,70.9418049 25.6255004,71.3274218 25.4388115,71.76755 C25.2521226,72.208183 25.1587781,72.6740526 25.1587781,73.1661685 C25.1587781,73.6582843 25.2521226,74.1246587 25.4388115,74.5647869 C25.6255004,75.0049152 25.8794374,75.386999 26.2016263,75.7105336 C26.5233133,76.0345729 26.9032152,76.2904732 27.3413319,76.4777296 C27.7789467,76.6654907 28.2421559,76.759876 28.7319633,76.759876 C29.220767,76.759876 29.6809652,76.6654907 30.1125578,76.4777296 C30.5436485,76.2904732 30.9205393,76.0345729 31.2422263,75.7105336 C31.5644152,75.386999 31.8183522,75.0049152 32.005543,74.5647869 C32.19173,74.1246587 32.2855763,73.6582843 32.2855763,73.1661685 C32.2855763,72.6740526 32.19173,72.208183 32.005543,71.76755 C31.8183522,71.3274218 31.5644152,70.9418049 31.2422263,70.6117087" id="Fill-6" fill="#FFFFFF"></path>
                <path d="M45.8720107,75.2057994 C45.7109163,75.0245998 45.63062,74.7914126 45.63062,74.5067425 L45.63062,72.2727889 C45.63062,71.4566337 45.3892293,70.7999745 44.9064478,70.3012972 C44.4236663,69.8026198 43.7767793,69.5532811 42.9652848,69.5532811 C42.4759793,69.5532811 42.0383644,69.6829978 41.6519385,69.9419264 C41.2660144,70.200855 40.9764459,70.5506358 40.783233,70.9907641 C40.5639237,70.5248944 40.2517719,70.1685521 39.8462756,69.9222418 C39.4407793,69.6764362 38.9805811,69.5532811 38.4656811,69.5532811 C38.0531589,69.5532811 37.6737589,69.6572563 37.3259756,69.8641973 C36.9781922,70.0711384 36.6951478,70.3628747 36.4763404,70.738397 L36.4763404,69.7279191 L35.0857089,69.7279191 L35.0857089,76.5847332 L36.4763404,76.5847332 L36.4763404,72.7972078 C36.4763404,72.525156 36.5210052,72.2662274 36.6113385,72.0204218 C36.70117,71.7741115 36.8241237,71.5575806 36.9781922,71.3693147 C37.1327626,71.1815536 37.3129274,71.0361901 37.5191885,70.9327196 C37.7249478,70.8287444 37.9437552,70.7767568 38.1756107,70.7767568 C38.6649163,70.7767568 39.035283,70.9296912 39.2862089,71.2335412 C39.5371348,71.5378959 39.6630996,71.9230081 39.6630996,72.3893825 L39.6630996,76.5847332 L41.0537311,76.5847332 L41.0537311,72.7972078 C41.0537311,72.525156 41.0983959,72.2662274 41.1887293,72.0204218 C41.2785607,71.7741115 41.4010126,71.5575806 41.555583,71.3693147 C41.7101533,71.1815536 41.8903181,71.0361901 42.0965793,70.9327196 C42.3023385,70.8287444 42.5211459,70.7767568 42.7530015,70.7767568 C43.242307,70.7767568 43.6126737,70.9296912 43.8635996,71.2335412 C44.1145256,71.5378959 44.2399885,71.9230081 44.2399885,72.3893825 L44.2399885,74.642516 C44.2399885,74.9145677 44.2816422,75.1800579 44.3654515,75.4389866 C44.4492607,75.6979152 44.5747237,75.9245409 44.7423422,76.1183588 C44.9094589,76.3126815 45.105683,76.4681396 45.3315163,76.5847332 C45.5563459,76.7013268 45.8173089,76.759876 46.1134015,76.759876 C46.3708515,76.759876 46.6217774,76.7306014 46.8666811,76.6720522 C47.111083,76.6140078 47.3364144,76.5140704 47.5426756,76.3712306 L47.5426756,75.0892058 C47.2852256,75.3486392 46.9565126,75.4778511 46.5575404,75.4778511 C46.2614478,75.4778511 46.0331052,75.386999 45.8720107,75.2057994" id="Fill-8" fill="#FFFFFF"></path>
                <path d="M60.06679,75.2057994 C59.9056956,75.0245998 59.8253993,74.7914126 59.8253993,74.5067425 L59.8253993,72.2727889 C59.8253993,71.4566337 59.5840085,70.7999745 59.101227,70.3012972 C58.6184456,69.8026198 57.9715585,69.5532811 57.1600641,69.5532811 C56.6707585,69.5532811 56.2331437,69.6829978 55.8467178,69.9419264 C55.4607937,70.200855 55.1712252,70.5506358 54.9780122,70.9907641 C54.758703,70.5248944 54.4465511,70.1685521 54.0410548,69.9222418 C53.6355585,69.6764362 53.1753604,69.5532811 52.6604604,69.5532811 C52.2479381,69.5532811 51.8685381,69.6572563 51.5207548,69.8641973 C51.1729715,70.0711384 50.889927,70.3628747 50.6711196,70.738397 L50.6711196,69.7279191 L49.2804881,69.7279191 L49.2804881,76.5847332 L50.6711196,76.5847332 L50.6711196,72.7972078 C50.6711196,72.525156 50.7157844,72.2662274 50.8061178,72.0204218 C50.8959493,71.7741115 51.018903,71.5575806 51.1729715,71.3693147 C51.3275419,71.1815536 51.5077067,71.0361901 51.7139678,70.9327196 C51.919727,70.8287444 52.1385344,70.7767568 52.37039,70.7767568 C52.8596956,70.7767568 53.2300622,70.9296912 53.4809881,71.2335412 C53.7319141,71.5378959 53.8578789,71.9230081 53.8578789,72.3893825 L53.8578789,76.5847332 L55.2485104,76.5847332 L55.2485104,72.7972078 C55.2485104,72.525156 55.2931752,72.2662274 55.3835085,72.0204218 C55.47334,71.7741115 55.5957919,71.5575806 55.7503622,71.3693147 C55.9049326,71.1815536 56.0850974,71.0361901 56.2913585,70.9327196 C56.4971178,70.8287444 56.7159252,70.7767568 56.9477807,70.7767568 C57.4370863,70.7767568 57.807453,70.9296912 58.0583789,71.2335412 C58.3093048,71.5378959 58.4347678,71.9230081 58.4347678,72.3893825 L58.4347678,74.642516 C58.4347678,74.9145677 58.4764215,75.1800579 58.5602307,75.4389866 C58.64404,75.6979152 58.769503,75.9245409 58.9371215,76.1183588 C59.1042381,76.3126815 59.3004622,76.4681396 59.5262956,76.5847332 C59.7511252,76.7013268 60.0120881,76.759876 60.3081807,76.759876 C60.5656307,76.759876 60.8165567,76.7306014 61.0614604,76.6720522 C61.3058622,76.6140078 61.5311937,76.5140704 61.7374548,76.3712306 L61.7374548,75.0892058 C61.4800048,75.3486392 61.1512919,75.4778511 60.7523196,75.4778511 C60.456227,75.4778511 60.2278844,75.386999 60.06679,75.2057994" id="Fill-10" fill="#FFFFFF"></path>
                <path d="M64.4410813,74.3704138 C64.1961776,74.0080146 64.0742276,73.5936279 64.0742276,73.1272535 C64.0742276,72.8163372 64.1254165,72.518544 64.228798,72.2338739 C64.3316776,71.9492038 64.4797239,71.6993604 64.6729369,71.4858578 C64.8661498,71.2723553 65.0980054,71.1042788 65.3680017,70.9811236 C65.6384998,70.8579685 65.9345924,70.7963909 66.2567813,70.7963909 C66.7325369,70.7963909 67.1515831,70.9452875 67.5119128,71.2430807 L64.4410813,74.3704138 Z M67.9655869,69.9514659 C67.4697572,69.6864804 66.9132035,69.5532306 66.294922,69.5532306 C65.8186646,69.5532306 65.3680017,69.6506443 64.9429331,69.844967 C64.5183665,70.0392896 64.1479998,70.2982183 63.8328369,70.6217529 C63.517172,70.9452875 63.2662461,71.3243429 63.0795572,71.7579096 C62.8928683,72.191981 62.7995239,72.6482607 62.7995239,73.1272535 C62.7995239,73.6582338 62.8988906,74.1468165 63.0986276,74.594011 C63.2983646,75.0407008 63.5683609,75.4263177 63.910122,75.7493476 C64.2508794,76.073387 64.6503535,76.3227257 65.1075406,76.4973637 C65.5642257,76.6720018 66.0505202,76.7598255 66.5654202,76.7598255 C66.9132035,76.7598255 67.270522,76.7270178 67.6373757,76.6624118 C68.0042294,76.5978058 68.3484998,76.4812122 68.6706887,76.312631 L68.6706887,74.9145173 C68.3740943,75.1471997 68.042872,75.3092194 67.6760183,75.4000716 C67.3091646,75.4909237 66.938798,75.5358451 66.5654202,75.5358451 C66.0635683,75.5358451 65.6124035,75.4000716 65.2134313,75.1280198 L69.269398,71.0876226 C68.8955183,70.5960115 68.4614165,70.2169561 67.9655869,69.9514659 Z" id="Fill-12" fill="#FFFFFF"></path>
                <path d="M73.2187713,75.2057994 C73.0576769,75.0245998 72.9773806,74.7914126 72.9773806,74.5067425 L72.9773806,62.7938807 L71.5867491,62.7938807 L71.5867491,74.642516 C71.5867491,74.9145677 71.6284028,75.1800579 71.712212,75.4389866 C71.7960213,75.6979152 71.9214843,75.9245409 72.0886009,76.1183588 C72.2562194,76.3126815 72.4559565,76.4681396 72.687812,76.5847332 C72.9196676,76.7013268 73.1831398,76.759876 73.4792324,76.759876 C73.7236343,76.759876 73.968538,76.7306014 74.2134417,76.6720522 C74.4578435,76.6140078 74.6896991,76.5140704 74.9085065,76.3712306 L74.9085065,75.0892058 C74.6380083,75.3486392 74.3032731,75.4778511 73.9043009,75.4778511 C73.6082083,75.4778511 73.3798657,75.386999 73.2187713,75.2057994" id="Fill-14" fill="#FFFFFF"></path>
                <path d="M78.0856804,66.7077411 C78.2979637,66.4942385 78.4043563,66.2383383 78.4043563,65.9400404 C78.4043563,65.6427519 78.2979637,65.3903848 78.0856804,65.1829391 C77.8728952,64.975998 77.6189581,64.8720228 77.3228656,64.8720228 C77.0262711,64.8720228 76.7753452,64.975998 76.5695859,65.1829391 C76.3633248,65.3903848 76.2604452,65.6427519 76.2604452,65.9400404 C76.2604452,66.2383383 76.3633248,66.4942385 76.5695859,66.7077411 C76.7753452,66.9212436 77.0262711,67.0282473 77.3228656,67.0282473 C77.6189581,67.0282473 77.8728952,66.9212436 78.0856804,66.7077411" id="Fill-16" fill="#FFFFFF"></path>
                <path d="M78.2594215,75.1959066 C78.098327,75.0086502 78.0180307,74.7779867 78.0180307,74.5064397 L78.0180307,69.728121 L76.6273993,69.728121 L76.6273993,74.6422132 C76.6273993,74.9142649 76.6725659,75.1797551 76.7628993,75.4386837 C76.8527307,75.6976124 76.9781937,75.924238 77.1392881,76.1185607 C77.3003826,76.3128834 77.4966067,76.4683415 77.7284622,76.5849351 C77.9603178,76.701024 78.22379,76.7595731 78.5203844,76.7595731 C78.7778344,76.7595731 79.0287604,76.7302986 79.2731622,76.6722541 C79.5175641,76.6142097 79.7433974,76.5137676 79.9491567,76.3714325 L79.9491567,75.0894077 C79.6791604,75.3483363 79.3439233,75.4775483 78.9449511,75.4775483 C78.6488585,75.4775483 78.4205159,75.3836677 78.2594215,75.1959066" id="Fill-18" fill="#FFFFFF"></path>
                <path d="M82.6529337,74.3704138 C82.40803,74.0080146 82.28608,73.5936279 82.28608,73.1272535 C82.28608,72.8163372 82.3372689,72.518544 82.4406504,72.2338739 C82.54353,71.9492038 82.6915763,71.6993604 82.8847893,71.4858578 C83.0780022,71.2723553 83.3098578,71.1042788 83.5798541,70.9811236 C83.8503522,70.8579685 84.1464448,70.7963909 84.4686337,70.7963909 C84.9443893,70.7963909 85.3629337,70.9452875 85.7237652,71.2430807 L82.6529337,74.3704138 Z M86.1774393,69.9514659 C85.6816096,69.6864804 85.1250559,69.5532306 84.5067744,69.5532306 C84.030517,69.5532306 83.5798541,69.6506443 83.1547856,69.844967 C82.7302189,70.0392896 82.3598522,70.2982183 82.0446893,70.6217529 C81.7290244,70.9452875 81.4780985,71.3243429 81.2914096,71.7579096 C81.1047207,72.191981 81.0113763,72.6482607 81.0113763,73.1272535 C81.0113763,73.6582338 81.110743,74.1468165 81.31048,74.594011 C81.510217,75.0407008 81.7802133,75.4263177 82.1219744,75.7493476 C82.4627319,76.073387 82.8622059,76.3227257 83.319393,76.4973637 C83.7760781,76.6720018 84.2623726,76.7598255 84.7772726,76.7598255 C85.1250559,76.7598255 85.4823744,76.7270178 85.8492281,76.6624118 C86.2160819,76.5978058 86.5603522,76.4812122 86.8825411,76.312631 L86.8825411,74.9145173 C86.5859467,75.1471997 86.2547244,75.3092194 85.8878707,75.4000716 C85.521017,75.4909237 85.1506504,75.5358451 84.7772726,75.5358451 C84.2754207,75.5358451 83.8242559,75.4000716 83.4252837,75.1280198 L87.4812504,71.0876226 C87.1073707,70.5960115 86.6732689,70.2169561 86.1774393,69.9514659 Z" id="Fill-20" fill="#FFFFFF"></path>
                <path d="M93.1784231,69.553483 C92.7403065,69.553483 92.3508694,69.6862281 92.010112,69.9512135 C91.6688528,70.2172084 91.3948417,70.5377147 91.1890824,70.9132369 L91.1890824,69.728121 L89.7984509,69.728121 L89.7984509,76.5849351 L91.1890824,76.5849351 L91.1890824,72.777725 C91.1890824,72.7519836 91.1986176,72.6934344 91.2181898,72.603087 C91.2372602,72.5127396 91.2533194,72.4541904 91.2663676,72.4279442 C91.3436528,72.1695203 91.4691157,71.92321 91.6427565,71.6900228 C91.8168991,71.4568356 92.0321935,71.2816929 92.2901454,71.165604 C92.3543824,71.3856681 92.4733213,71.5537446 92.6474639,71.6703382 C92.8211046,71.7874365 93.0173287,71.845481 93.2361361,71.845481 C93.5452769,71.845481 93.8092509,71.7354489 94.0280583,71.5153848 C94.2468657,71.2953207 94.3562694,71.0298305 94.3562694,70.7189142 C94.3562694,70.3822565 94.2408435,70.104148 94.008988,69.8835791 C93.7771324,69.663515 93.5001102,69.553483 93.1784231,69.553483" id="Fill-22" fill="#FFFFFF"></path>
                <path d="M106.658565,73.7683164 C106.658565,73.7945626 106.639495,73.8652253 106.600852,73.9818189 C106.56221,74.0984125 106.530091,74.1695801 106.504497,74.1953215 C106.32383,74.5970899 106.04731,74.9206246 105.67343,75.1669348 C105.300052,75.4127404 104.888534,75.5358955 104.437369,75.5358955 C104.115682,75.5358955 103.813065,75.4712896 103.530021,75.3415729 C103.246475,75.2123609 103.002073,75.0407513 102.795812,74.826744 C102.590052,74.6132414 102.42946,74.3608743 102.31303,74.0696427 C102.197102,73.7784111 102.139389,73.4770847 102.139389,73.1661685 C102.139389,72.8426338 102.197102,72.5382791 102.31303,72.2531043 C102.42946,71.9684342 102.590052,71.7160671 102.795812,71.496003 C103.002073,71.2759389 103.246475,71.1007961 103.530021,70.9710794 C103.813065,70.8418675 104.115682,70.7767568 104.437369,70.7767568 C104.888534,70.7767568 105.300052,70.9004166 105.67343,71.1462222 C106.04731,71.3925325 106.32383,71.7221239 106.504497,72.1365107 C106.530091,72.1627569 106.56221,72.230896 106.600852,72.3409281 C106.639495,72.4509601 106.658565,72.5185945 106.658565,72.5443359 L106.658565,73.7683164 Z M108.290588,75.2153893 C108.129493,75.0276282 108.049197,74.7914126 108.049197,74.5067425 L108.049197,69.7279191 L106.658565,69.7279191 L106.658565,70.8544858 C106.362473,70.4274807 106.002143,70.1039461 105.577075,69.8833772 C105.152508,69.6633131 104.681771,69.5532811 104.167373,69.5532811 C103.665019,69.5532811 103.204821,69.6506948 102.786276,69.8450174 C102.367732,70.0388354 102.007402,70.3012972 101.705288,70.6313933 C101.402169,70.9614895 101.167302,71.3435733 101.000186,71.77714 C100.832567,72.2112114 100.748758,72.6740526 100.748758,73.1661685 C100.748758,73.6582843 100.832567,74.1211256 101.000186,74.555197 C101.167302,74.9892684 101.402169,75.3678191 101.705288,75.6913537 C102.007402,76.0148883 102.367732,76.2743217 102.786276,76.4681396 C103.204821,76.6624623 103.665019,76.759876 104.167373,76.759876 C104.707867,76.759876 105.200686,76.6362161 105.644825,76.3904105 C106.088964,76.144605 106.458828,75.7882626 106.754921,75.322393 C106.858302,75.7367798 107.070586,76.0830274 107.392775,76.361136 C107.714462,76.6397492 108.100888,76.7790559 108.551551,76.7790559 C108.795952,76.7790559 109.040856,76.7462482 109.285258,76.6821469 C109.52966,76.6170362 109.761515,76.5140704 109.980825,76.3712306 L109.980825,75.0892058 C109.68423,75.3607528 109.349495,75.497031 108.976117,75.497031 C108.680025,75.497031 108.451682,75.4036552 108.290588,75.2153893 Z" id="Fill-24" fill="#FFFFFF"></path>
                <polygon id="Fill-26" fill="#FFFFFF" points="105.113514 68.9900986 105.944079 68.1739434 103.781097 65.9793591 102.950533 66.8141895"></polygon>
                <path d="M122.089857,73.6905368 C122.089857,73.7294014 122.070285,73.804102 122.031643,73.9141341 C121.993502,74.0241661 121.967406,74.0923053 121.954357,74.1180467 C121.774193,74.5450518 121.490646,74.8887758 121.104722,75.1471997 C120.718296,75.4066331 120.300254,75.5358451 119.849089,75.5358451 C119.527402,75.5358451 119.224785,75.4712391 118.941741,75.3415224 C118.658194,75.2123104 118.413793,75.0407008 118.207531,74.8266935 C118.001772,74.6131909 117.84118,74.3608238 117.72475,74.0695922 C117.608822,73.7783606 117.551109,73.4770343 117.551109,73.166118 C117.551109,72.8425834 117.608822,72.5382287 117.72475,72.2530538 C117.84118,71.9683837 118.001772,71.7160166 118.207531,71.4959525 C118.413793,71.2758884 118.658194,71.1007457 118.941741,70.971029 C119.224785,70.841817 119.527402,70.7767063 119.849089,70.7767063 C120.300254,70.7767063 120.718296,70.9099561 121.104722,71.1754463 C121.490646,71.4409365 121.774193,71.7806226 121.954357,72.1950094 C121.967406,72.2212556 121.993502,72.2919184 122.031643,72.408512 C122.070285,72.5251056 122.089857,72.5962731 122.089857,72.6220145 L122.089857,73.6905368 Z M123.72188,75.2057489 C123.560785,75.0245493 123.480489,74.7913621 123.480489,74.506692 L123.480489,62.7938302 L122.089857,62.7938302 L122.089857,70.8932999 C121.793263,70.4531717 121.432933,70.1200471 121.007865,69.8934214 C120.583298,69.6667958 120.107041,69.5532306 119.579093,69.5532306 C119.076739,69.5532306 118.616541,69.6506443 118.197996,69.844967 C117.779452,70.0392896 117.419122,70.3012467 117.116506,70.6313428 C116.813889,70.961439 116.579022,71.3435228 116.411906,71.7775942 C116.244287,72.2111609 116.160478,72.6740022 116.160478,73.166118 C116.160478,73.6582338 116.244287,74.1210751 116.411906,74.5551465 C116.579022,74.9892179 116.813889,75.3677686 117.116506,75.6913032 C117.419122,76.0148378 117.779452,76.2742712 118.197996,76.4680891 C118.616541,76.6624118 119.076739,76.7598255 119.579093,76.7598255 C120.132635,76.7598255 120.631476,76.6331372 121.076117,76.3807701 C121.519754,76.128403 121.883596,75.7690323 122.166641,75.3026579 C122.28307,75.7175494 122.501878,76.0632923 122.823565,76.3419056 C123.145252,76.6205189 123.531678,76.7598255 123.982341,76.7598255 C124.226743,76.7598255 124.471646,76.7305509 124.71655,76.6720018 C124.960952,76.6139573 125.192306,76.5140199 125.411615,76.3711802 L125.411615,75.0891553 C125.141117,75.3485887 124.806381,75.4778006 124.407409,75.4778006 C124.110815,75.4778006 123.882472,75.3869485 123.72188,75.2057489 Z" id="Fill-28" fill="#FFFFFF"></path>
                <path d="M132.219436,74.0984125 C132.096984,74.3835874 131.929867,74.6293929 131.717584,74.8368387 C131.504799,75.0437797 131.256884,75.2093325 130.973338,75.3319829 C130.690293,75.4551381 130.387677,75.5167156 130.06599,75.5167156 C129.743801,75.5167156 129.438173,75.4551381 129.148604,75.3319829 C128.859036,75.2093325 128.607608,75.0437797 128.395325,74.8368387 C128.183041,74.6293929 128.015423,74.3835874 127.892971,74.0984125 C127.770519,73.8137425 127.709795,73.5093877 127.709795,73.1858531 C127.709795,72.8618137 127.770519,72.5544306 127.892971,72.263199 C128.015423,71.9714626 128.183041,71.7190955 128.395325,71.505593 C128.607608,71.2915857 128.859036,71.1204808 129.148604,70.9907641 C129.438173,70.8615521 129.743801,70.7964414 130.06599,70.7964414 C130.259203,70.7964414 130.471486,70.8287444 130.703341,70.8933504 C130.522675,71.1139192 130.432843,71.3531632 130.432843,71.6125966 C130.432843,71.9230081 130.545258,72.1884983 130.771091,72.4085624 C130.995921,72.6291313 131.263408,72.7386586 131.572549,72.7386586 C131.842545,72.7386586 132.080925,72.6483112 132.287186,72.4671116 C132.364471,72.6997941 132.402612,72.9395428 132.402612,73.1858531 C132.402612,73.5093877 132.341888,73.8137425 132.219436,74.0984125 M132.557182,70.6117087 C132.235495,70.2821173 131.858604,70.0226839 131.427514,69.8349228 C130.995921,69.6476664 130.535723,69.5532811 130.046919,69.5532811 C129.557112,69.5532811 129.093401,69.6476664 128.655786,69.8349228 C128.218171,70.0226839 127.838269,70.2821173 127.516582,70.6117087 C127.194393,70.9418049 126.940456,71.3274218 126.753767,71.76755 C126.567079,72.208183 126.473734,72.6740526 126.473734,73.1661685 C126.473734,73.6582843 126.567079,74.1246587 126.753767,74.5647869 C126.940456,75.0049152 127.194393,75.386999 127.516582,75.7105336 C127.838269,76.0345729 128.218171,76.2904732 128.655786,76.4777296 C129.093401,76.6654907 129.557112,76.759876 130.046919,76.759876 C130.535723,76.759876 130.995921,76.6654907 131.427514,76.4777296 C131.858604,76.2904732 132.235495,76.0345729 132.557182,75.7105336 C132.879371,75.386999 133.133308,75.0049152 133.319997,74.5647869 C133.506686,74.1246587 133.600532,73.6582843 133.600532,73.1661685 C133.600532,72.6740526 133.506686,72.208183 133.319997,71.76755 C133.133308,71.3274218 132.879371,70.9418049 132.557182,70.6117087" id="Fill-30" fill="#FFFFFF"></path>
                <path d="M147.186716,75.2057994 C147.025621,75.0245998 146.945325,74.7914126 146.945325,74.5067425 L146.945325,72.2727889 C146.945325,71.4566337 146.703934,70.7999745 146.221153,70.3012972 C145.738371,69.8026198 145.091484,69.5532811 144.280492,69.5532811 C143.790684,69.5532811 143.353069,69.6829978 142.966644,69.9419264 C142.580719,70.200855 142.291151,70.5506358 142.097938,70.9907641 C141.878629,70.5248944 141.566477,70.1685521 141.160981,69.9222418 C140.755484,69.6764362 140.295286,69.5532811 139.780386,69.5532811 C139.367864,69.5532811 138.988464,69.6572563 138.640681,69.8641973 C138.293399,70.0711384 138.009853,70.3628747 137.791045,70.738397 L137.791045,69.7279191 L136.400414,69.7279191 L136.400414,76.5847332 L137.791045,76.5847332 L137.791045,72.7972078 C137.791045,72.525156 137.836212,72.2662274 137.926044,72.0204218 C138.015875,71.7741115 138.138829,71.5575806 138.293399,71.3693147 C138.447468,71.1815536 138.627632,71.0361901 138.833894,70.9327196 C139.039653,70.8287444 139.258962,70.7767568 139.490316,70.7767568 C139.979621,70.7767568 140.349988,70.9296912 140.600914,71.2335412 C140.852342,71.5378959 140.977805,71.9230081 140.977805,72.3893825 L140.977805,76.5847332 L142.368436,76.5847332 L142.368436,72.7972078 C142.368436,72.525156 142.413101,72.2662274 142.503434,72.0204218 C142.593266,71.7741115 142.716219,71.5575806 142.870288,71.3693147 C143.024858,71.1815536 143.205023,71.0361901 143.411284,70.9327196 C143.617044,70.8287444 143.835851,70.7767568 144.067706,70.7767568 C144.557012,70.7767568 144.927379,70.9296912 145.178305,71.2335412 C145.429231,71.5378959 145.554694,71.9230081 145.554694,72.3893825 L145.554694,74.642516 C145.554694,74.9145677 145.596347,75.1800579 145.680658,75.4389866 C145.763966,75.6979152 145.889429,75.9245409 146.057047,76.1183588 C146.224164,76.3126815 146.420388,76.4681396 146.646221,76.5847332 C146.871553,76.7013268 147.132014,76.759876 147.428106,76.759876 C147.685556,76.759876 147.936482,76.7306014 148.181386,76.6720522 C148.425788,76.6140078 148.651621,76.5140704 148.857381,76.3712306 L148.857381,75.0892058 C148.599931,75.3486392 148.271719,75.4778511 147.872245,75.4778511 C147.576153,75.4778511 147.34781,75.386999 147.186716,75.2057994" id="Fill-32" fill="#FFFFFF"></path>
                <path d="M152.034253,66.7077411 C152.246537,66.4942385 152.352427,66.2383383 152.352427,65.9400404 C152.352427,65.6427519 152.246537,65.3903848 152.034253,65.1829391 C151.821468,64.975998 151.567029,64.8720228 151.270937,64.8720228 C150.974844,64.8720228 150.723918,64.975998 150.517657,65.1829391 C150.311898,65.3903848 150.209018,65.6427519 150.209018,65.9400404 C150.209018,66.2383383 150.311898,66.4942385 150.517657,66.7077411 C150.723918,66.9212436 150.974844,67.0282473 151.270937,67.0282473 C151.567029,67.0282473 151.821468,66.9212436 152.034253,66.7077411" id="Fill-34" fill="#FFFFFF"></path>
                <path d="M152.207794,75.1959066 C152.046699,75.0086502 151.966403,74.7779867 151.966403,74.5064397 L151.966403,69.728121 L150.575771,69.728121 L150.575771,74.6422132 C150.575771,74.9142649 150.620938,75.1797551 150.711271,75.4386837 C150.801103,75.6976124 150.926566,75.924238 151.08766,76.1185607 C151.248755,76.3128834 151.444979,76.4683415 151.676834,76.5849351 C151.90869,76.701024 152.172162,76.7595731 152.468757,76.7595731 C152.726207,76.7595731 152.977133,76.7302986 153.221534,76.6722541 C153.465936,76.6142097 153.69177,76.5137676 153.897529,76.3714325 L153.897529,75.0894077 C153.627533,75.3483363 153.292797,75.4775483 152.893323,75.4775483 C152.597231,75.4775483 152.368888,75.3836677 152.207794,75.1959066" id="Fill-36" fill="#FFFFFF"></path>
                <path d="M159.141279,72.1465044 C159.366108,72.3473887 159.607499,72.447326 159.865451,72.447326 C160.200186,72.447326 160.470684,72.3377987 160.676443,72.1172299 C160.882704,71.8971657 160.985584,71.625114 160.985584,71.3015794 C160.985584,70.9780448 160.901775,70.7024599 160.734658,70.476339 C160.56704,70.2497133 160.357767,70.068009 160.106841,69.9322355 C159.855916,69.796462 159.578893,69.6990483 159.276277,69.6404991 C158.97366,69.5824547 158.687103,69.5536849 158.417106,69.5536849 C157.927299,69.5536849 157.473625,69.6505938 157.05508,69.8449165 C156.636536,70.0392392 156.273195,70.2981678 155.964054,70.6217024 C155.654914,70.945237 155.410512,71.3242924 155.230347,71.7578591 C155.04968,72.1919305 154.959849,72.6482102 154.959849,73.127203 C154.959849,73.6581834 155.059717,74.1467661 155.258953,74.5939606 C155.45869,75.0406503 155.732199,75.4262673 156.079982,75.7492972 C156.427766,76.0733365 156.833262,76.3226752 157.296471,76.497818 C157.760182,76.6719513 158.249488,76.759775 158.764388,76.759775 C159.112171,76.759775 159.46949,76.7269673 159.836343,76.6623613 C160.203699,76.5977553 160.541445,76.4811617 160.850586,76.3125805 L160.850586,74.8559176 C160.56704,75.0891048 160.238327,75.2480961 159.865451,75.331882 C159.491571,75.4161726 159.124717,75.4580655 158.764388,75.4580655 C158.429653,75.4580655 158.110977,75.4000211 157.80836,75.2834275 C157.505743,75.1668339 157.238758,75.0053189 157.006903,74.7978732 C156.775549,74.5909322 156.591871,74.3446219 156.456873,74.0594471 C156.321373,73.7752817 156.253623,73.4638607 156.253623,73.127203 C156.253623,72.8299145 156.301801,72.5412066 156.398658,72.263098 C156.495014,71.9844848 156.636536,71.7417076 156.823727,71.5347666 C157.009914,71.3273208 157.232234,71.1622728 157.489684,71.0391176 C157.747134,70.9159625 158.03068,70.8548896 158.339821,70.8548896 C158.558629,70.8548896 158.764388,70.8932494 158.957601,70.9709785 C158.854721,71.1006952 158.803532,71.2500965 158.803532,71.418173 C158.803532,71.7028431 158.915947,71.9456202 159.141279,72.1465044" id="Fill-38" fill="#FFFFFF"></path>
                <path d="M165.224927,66.7077411 C165.437211,66.4942385 165.543101,66.2383383 165.543101,65.9400404 C165.543101,65.6427519 165.437211,65.3903848 165.224927,65.1829391 C165.012142,64.975998 164.757703,64.8720228 164.461611,64.8720228 C164.165518,64.8720228 163.914592,64.975998 163.708331,65.1829391 C163.502572,65.3903848 163.399692,65.6427519 163.399692,65.9400404 C163.399692,66.2383383 163.502572,66.4942385 163.708331,66.7077411 C163.914592,66.9212436 164.165518,67.0282473 164.461611,67.0282473 C164.757703,67.0282473 165.012142,66.9212436 165.224927,66.7077411" id="Fill-40" fill="#FFFFFF"></path>
                <path d="M165.398418,75.1959066 C165.237323,75.0086502 165.157027,74.7779867 165.157027,74.5064397 L165.157027,69.728121 L163.766395,69.728121 L163.766395,74.6422132 C163.766395,74.9142649 163.811562,75.1797551 163.901895,75.4386837 C163.991727,75.6976124 164.11719,75.924238 164.278284,76.1185607 C164.439379,76.3128834 164.635603,76.4683415 164.867458,76.5849351 C165.099314,76.701024 165.362786,76.7595731 165.659381,76.7595731 C165.916831,76.7595731 166.167756,76.7302986 166.412158,76.6722541 C166.65656,76.6142097 166.882394,76.5137676 167.088153,76.3714325 L167.088153,75.0894077 C166.818156,75.3483363 166.483421,75.4775483 166.083947,75.4775483 C165.787855,75.4775483 165.559512,75.3836677 165.398418,75.1959066" id="Fill-42" fill="#FFFFFF"></path>
                <path d="M170.458289,75.2057994 C170.297194,75.0245998 170.216898,74.7914126 170.216898,74.5067425 L170.216898,62.7938807 L168.826266,62.7938807 L168.826266,74.642516 C168.826266,74.9145677 168.86792,75.1800579 168.952231,75.4389866 C169.035539,75.6979152 169.161002,75.9245409 169.32862,76.1183588 C169.495737,76.3126815 169.695474,76.4681396 169.927329,76.5847332 C170.159185,76.7013268 170.422657,76.759876 170.71875,76.759876 C170.963152,76.759876 171.208055,76.7306014 171.452959,76.6720522 C171.697361,76.6140078 171.929216,76.5140704 172.148024,76.3712306 L172.148024,75.0892058 C171.877526,75.3486392 171.542791,75.4778511 171.143818,75.4778511 C170.847726,75.4778511 170.619383,75.386999 170.458289,75.2057994" id="Fill-44" fill="#FFFFFF"></path>
                <path d="M174.852052,74.3704138 C174.607148,74.0080146 174.485198,73.5936279 174.485198,73.1272535 C174.485198,72.8163372 174.536387,72.518544 174.639769,72.2338739 C174.742648,71.9492038 174.890694,71.6993604 175.083907,71.4858578 C175.276619,71.2723553 175.508976,71.1042788 175.779474,70.9811236 C176.04947,70.8579685 176.345563,70.7963909 176.667752,70.7963909 C177.143507,70.7963909 177.562554,70.9452875 177.922883,71.2430807 L174.852052,74.3704138 Z M178.376557,69.9514659 C177.88123,69.6864804 177.324174,69.5532306 176.705893,69.5532306 C176.229635,69.5532306 175.779474,69.6506443 175.353904,69.844967 C174.929337,70.0392896 174.55897,70.2982183 174.243807,70.6217529 C173.928143,70.9452875 173.677217,71.3243429 173.490528,71.7579096 C173.303839,72.191981 173.210494,72.6482607 173.210494,73.1272535 C173.210494,73.6582338 173.309861,74.1468165 173.5101,74.594011 C173.709335,75.0407008 173.979331,75.4263177 174.321093,75.7493476 C174.66185,76.073387 175.060822,76.3227257 175.518009,76.4973637 C175.975196,76.6720018 176.460989,76.7598255 176.976391,76.7598255 C177.324174,76.7598255 177.681493,76.7270178 178.048346,76.6624118 C178.4152,76.5978058 178.75947,76.4812122 179.081659,76.312631 L179.081659,74.9145173 C178.785065,75.1471997 178.453843,75.3092194 178.086989,75.4000716 C177.720135,75.4909237 177.349769,75.5358451 176.976391,75.5358451 C176.474539,75.5358451 176.023876,75.4000716 175.624402,75.1280198 L179.680369,71.0876226 C179.306991,70.5960115 178.872387,70.2169561 178.376557,69.9514659 Z" id="Fill-46" fill="#FFFFFF"></path>
                <path d="M40.5542881,24.9099954 C39.6057881,25.2426152 38.5805048,25.4510704 37.50604,25.5293042 C37.1080715,25.5570646 36.7126122,25.5711972 36.3261863,25.5711972 C35.3510881,25.5711972 34.3865289,25.4818592 33.4586048,25.3062117 L33.4064122,25.2956123 C33.2704104,25.2668424 33.1419363,25.231511 33.0099493,25.1926465 L32.9718085,25.1815424 C32.2626919,24.9710682 31.5776641,24.6959881 30.9237511,24.363873 C30.998527,25.1679145 31.0381733,26.0067828 31.0381733,26.8824966 C31.0381733,35.6229787 27.272277,40.8676718 20.8410456,40.8676718 C14.4103159,40.8676718 10.5862048,35.5649343 10.5862048,26.8824966 C10.5862048,18.1425192 14.4103159,12.8983309 20.8410456,12.8983309 C22.0981844,12.8983309 23.2524437,13.101234 24.2972993,13.4893746 C24.3008122,12.3506943 24.4588956,11.2034334 24.7886122,10.0788856 C25.2342567,8.56064516 25.9654548,7.1711119 26.9174678,5.96580663 C25.0395381,5.46914818 23.0100493,5.20618166 20.8410456,5.20618166 C8.50050852,5.20618166 0.56321963,13.5388386 0.56321963,26.8824966 C0.56321963,40.168615 8.50050852,48.5593163 20.8410456,48.5593163 C33.1815826,48.5593163 41.1193733,40.2266594 41.1193733,26.8824966 C41.1193733,26.1435657 41.0907678,25.4223006 41.04259,24.7146632 C41.0205085,24.7237484 40.9989289,24.7343479 40.9768474,24.7429283 C40.8403437,24.802487 40.6993233,24.8590172 40.5542881,24.9099954" id="Fill-48" fill="#FFFFFF"></path>
                <path d="M79.3016172,47.568624 L93.1487135,6.19707584 L82.7197302,6.19707584 L75.0720098,32.8843919 C74.319232,35.3318481 73.9714487,36.9636537 73.7395931,38.5954594 L73.5077376,38.5954594 C73.3340969,36.9636537 72.9286006,35.3318481 72.2330339,32.8843919 L64.5853135,6.19707584 L54.156832,6.19707584 L68.0039283,47.568624 L79.3016172,47.568624 Z" id="Fill-50" fill="#FFFFFF"></path>
                <polygon id="Fill-52" fill="#FFFFFF" points="97.552313 47.5683716 107.343944 47.5683716 107.343944 6.19682348 97.552313 6.19682348"></polygon>
                <path d="M124.898923,24.1440107 C124.898923,22.1048846 124.84121,20.3564853 124.84121,18.6671399 L124.957138,18.6671399 C125.478562,20.1818473 126.405482,21.8716974 127.390617,23.7361855 L141.063571,47.5687249 L151.492053,47.5687249 L151.492053,6.19667206 L142.511916,6.19667206 L142.511916,29.8545735 C142.511916,31.8356552 142.569629,33.5255053 142.569629,35.157311 L142.453701,35.157311 C141.932779,33.6420989 140.889429,31.5444236 139.96301,29.796529 L126.752764,6.19667206 L115.918786,6.19667206 L115.918786,47.5687249 L124.898923,47.5687249 L124.898923,24.1440107 Z" id="Fill-54" fill="#FFFFFF"></path>
                <path d="M177.738804,40.8676718 C171.307573,40.8676718 167.483963,35.5649343 167.483963,26.8824966 C167.483963,18.1425192 171.307573,12.8983309 177.738804,12.8983309 C184.170036,12.8983309 187.935932,18.1425192 187.935932,26.8824966 C187.935932,35.6229787 184.170036,40.8676718 177.738804,40.8676718 M177.738804,5.20618166 C165.398267,5.20618166 157.460978,13.5388386 157.460978,26.8824966 C157.460978,40.168615 165.398267,48.5593163 177.738804,48.5593163 C190.079843,48.5593163 198.01663,40.2266594 198.01663,26.8824966 C198.01663,13.5388386 190.079843,5.20618166 177.738804,5.20618166" id="Fill-55" fill="#FFFFFF"></path>
                <path d="M45.7161857,0.364367431 C41.2632543,4.36085283 34.8877283,6.17739121 34.0310672,6.40855947 C33.0986265,6.72098994 32.2540098,7.21209632 31.5293357,7.83746199 C30.4538672,8.76566819 29.6463876,9.99318176 29.2343672,11.3983618 C28.4600098,14.0361027 29.1811709,16.8822989 31.115308,18.8275445 C31.9850172,19.7027536 33.0755413,20.3523465 34.268945,20.7061652 L34.3693154,20.734935 C35.2611061,20.8984689 36.2050894,20.9469234 37.1766746,20.879289 C37.8396209,20.8308345 38.4634228,20.7061652 39.0270024,20.5083093 C39.0696598,20.4931673 39.1113135,20.4760064 39.1519635,20.4578359 L39.2573524,20.4139241 C39.6201913,20.2731032 39.9619524,20.0979604 40.2931746,19.8839531 C40.3975598,19.8163188 40.5009413,19.745656 40.6033191,19.6704506 C41.7124117,18.8593427 42.6624172,17.6141634 43.4317561,15.966711 C43.4814394,15.8556695 43.5376469,15.7320096 43.5908431,15.6058261 C45.518958,11.1364047 45.8291024,4.99429425 45.7161857,0.364367431" id="Fill-56" fill="#8C2632"></path>
            </g>
        </g>
    </g>
</svg>