<?xml version="1.0" encoding="UTF-8"?>
<svg width="91px" height="91px" viewBox="0 0 91 91" version="1.1" xmlns="http://www.w3.org/2000/svg" xmlns:xlink="http://www.w3.org/1999/xlink">
    <!-- Generator: Sketch 52.4 (67378) - http://www.bohemiancoding.com/sketch -->
    <title>Group 3</title>
    <desc>Created with Sketch.</desc>
    <g id="Home" stroke="none" stroke-width="1" fill="none" fill-rule="evenodd">
        <g id="Homepage" transform="translate(-675.000000, -904.000000)">
            <g id="Group-3" transform="translate(675.000000, 904.000000)">
                <circle id="Oval" fill="#EFECE9" cx="45.5" cy="45.5" r="45.5"></circle>
                <g id="Group-3-Copy" transform="translate(26.000000, 23.000000)" fill="#000000" stroke="#000000">
                    <path d="M38.7342763,12.4621762 C38.7342763,13.5432642 37.8665971,14.4220207 36.8008467,14.4220207 L33.6810349,14.4220207 L33.6810349,0.887823834 L36.8008467,0.887823834 C37.8665971,0.887823834 38.7342763,1.76683938 38.7342763,2.84792746 L38.7342763,12.4621762 Z M6.80597913,14.4220207 L32.8051772,14.4220207 L32.8051772,0.887823834 L6.80597913,0.887823834 L6.80597913,14.4220207 Z M5.92935471,14.4220207 L2.80954294,14.4220207 C1.74379255,14.4220207 0.877646727,13.5432642 0.877646727,12.4621762 L0.877646727,2.84792746 C0.877646727,1.76683938 1.74379255,0.887823834 2.80954294,0.887823834 L5.92935471,0.887823834 L5.92935471,14.4220207 Z M36.8008467,0 L2.80954294,0 C1.26049903,0 2.27373675e-13,1.27772021 2.27373675e-13,2.84792746 L2.27373675e-13,12.4621762 C2.27373675e-13,14.0331606 1.26049903,15.311658 2.80954294,15.311658 L22.8839867,15.311658 L19.1597385,19.0878238 C18.8545812,19.3966321 18.6869236,19.8088083 18.6869236,20.2497409 C18.6869236,20.6904145 18.8545812,21.1044041 19.1597385,21.4150259 L22.7935129,25.0971503 C22.9338239,25.2378238 23.0117745,25.4284974 23.0117745,25.6331606 C23.0117745,25.8370466 22.9345907,26.0272021 22.7935129,26.1678756 L19.1597385,29.8523316 C18.8545812,30.1632124 18.6869236,30.5759067 18.6869236,31.0168394 C18.6869236,31.457513 18.8545812,31.8712435 19.1597385,32.1803109 L22.7935129,35.8626943 C22.9338239,36.0049223 23.0117745,36.1950777 23.0117745,36.3997409 C23.0117745,36.6018135 22.9338239,36.7927461 22.7935129,36.9349741 L19.1597385,40.6204663 C18.8545812,40.9292746 18.6869236,41.3417098 18.6869236,41.7831606 C18.6869236,42.2238342 18.8545812,42.6370466 19.1597385,42.9474093 L20.1401267,43.9388601 C20.5117336,44.3158031 20.8493491,45.1445596 20.8493491,45.6772021 L20.8493491,49.3945596 L21.2833165,50 L21.7259735,49.3466321 L21.7259735,45.6772021 C21.7259735,44.911658 21.2920061,43.8502591 20.7593864,43.311399 L19.7795095,42.3186528 C19.6384317,42.1756477 19.561759,41.9852332 19.5625257,41.7831606 C19.5625257,41.5803109 19.6399652,41.3901554 19.7795095,41.2479275 L23.4140505,37.5639896 C23.7202302,37.2536269 23.8878878,36.8393782 23.8878878,36.3997409 C23.8878878,35.9598446 23.7202302,35.5455959 23.4140505,35.2360104 L19.7795095,31.5528497 C19.6384317,31.4098446 19.561759,31.2196891 19.5625257,31.0168394 C19.5625257,30.8124352 19.6399652,30.6222798 19.7795095,30.4816062 L23.4140505,26.7968912 C23.7202302,26.4880829 23.8878878,26.0738342 23.8878878,25.6331606 C23.8878878,25.192487 23.7202302,24.7792746 23.4140505,24.4696891 L19.7795095,20.7857513 C19.6384317,20.6435233 19.561759,20.4533679 19.5625257,20.2497409 C19.5625257,20.0466321 19.6399652,19.8559585 19.7795095,19.7145078 L24.1240397,15.311658 L36.8008467,15.311658 C38.3498906,15.311658 39.6103896,14.0331606 39.6103896,12.4621762 L39.6103896,2.84792746 C39.6103896,1.27772021 38.3498906,0 36.8008467,0 Z" id="Fill-1"></path>
                </g>
            </g>
        </g>
        <g id="Page"></g>
        <g id="Page"></g>
    </g>
</svg>